<?xml version="1.0" encoding="utf-8"?>
<!-- Generator: Adobe Illustrator 22.0.0, SVG Export Plug-In . SVG Version: 6.00 Build 0)  -->
<svg version="1.1" id="Layer_1" xmlns="http://www.w3.org/2000/svg" xmlns:xlink="http://www.w3.org/1999/xlink" x="0px" y="0px"
	 viewBox="0 0 617.6 649.9" style="enable-background:new 0 0 617.6 649.9;" xml:space="preserve">
<style type="text/css">
	.st0{fill:#F9F3ED;stroke:#640917;stroke-width:2;stroke-linecap:round;stroke-miterlimit:10;}
	.st1{fill:#C68671;stroke:#640917;stroke-width:2;stroke-linecap:round;stroke-miterlimit:10;}
	.st2{fill:#FFFFFF;stroke:#640917;stroke-width:2;stroke-linecap:round;stroke-miterlimit:10;}
	.st3{fill:#C68671;}
	.st4{fill:#FFEDD9;stroke:#640917;stroke-width:2;stroke-linecap:round;stroke-miterlimit:10;}
	.st5{fill:#A8C6C4;stroke:#640917;stroke-width:2;stroke-linecap:round;stroke-miterlimit:10;}
	.st6{fill:#CDE0DF;stroke:#640917;stroke-width:2;stroke-linecap:round;stroke-miterlimit:10;}
	.st7{fill:#E25959;stroke:#640917;stroke-width:2;stroke-linecap:round;stroke-miterlimit:10;}
	.st8{fill:#B2CCCA;}
	.st9{opacity:0.2;fill:#640917;}
	.st10{fill:#FCD3B6;}
	.st11{fill:none;stroke:#640917;stroke-width:2;stroke-linecap:round;stroke-miterlimit:10;}
	.st12{fill:#965748;stroke:#640917;stroke-width:2;stroke-linecap:round;stroke-miterlimit:10;}
	.st13{fill:#F7F7F7;stroke:#009EE6;stroke-width:4.3381;stroke-linecap:round;stroke-miterlimit:10;}
	.st14{fill:#FFEDD9;}
	.st15{fill:#FFF3E4;stroke:#640917;stroke-width:2;stroke-linecap:round;stroke-miterlimit:10;}
	.st16{fill:#DB8758;stroke:#640917;stroke-width:2;stroke-miterlimit:10;}
	.st17{fill:#DB8758;}
	.st18{opacity:0.18;}
	.st19{fill:#64121A;}
	.st20{fill:#FCD3B6;stroke:#640917;stroke-width:2;stroke-linecap:round;stroke-miterlimit:10;}
	.st21{fill:#640917;}
	.st22{opacity:0.18;fill:#64121A;}
	.st23{fill:#FF9F36;stroke:#640917;stroke-width:2;stroke-linecap:round;stroke-miterlimit:10;}
	.st24{opacity:0.76;fill:url(#XMLID_22_);}
	.st25{display:none;}
	.st26{display:inline;fill:#C68671;stroke:#640917;stroke-width:2;stroke-linecap:round;stroke-miterlimit:10;}
	.st27{display:inline;}
	.st28{fill:#ADD154;stroke:#640917;stroke-width:2;stroke-linecap:round;stroke-miterlimit:10;}
	.st29{fill:#EAB992;stroke:#640917;stroke-width:2;stroke-linecap:round;stroke-miterlimit:10;}
	.st30{display:inline;fill:none;stroke:#640917;stroke-width:2;stroke-linecap:round;stroke-miterlimit:10;}
	.st31{fill:#FFD671;stroke:#640917;stroke-width:2;stroke-miterlimit:10;}
	.st32{fill:#ADD154;stroke:#640917;stroke-width:2;stroke-miterlimit:10;}
	.st33{fill:#C68671;stroke:#640917;stroke-width:2;stroke-miterlimit:10;}
	.st34{fill:#ADD154;stroke:#640917;stroke-width:2;stroke-linecap:round;stroke-linejoin:round;stroke-miterlimit:10;}
	.st35{opacity:0.22;fill:#640917;stroke:#640917;stroke-width:2;stroke-linecap:round;stroke-miterlimit:10;}
	.st36{fill:#FFD671;}
</style>
<g>
	<g id="XMLID_20369_">
		<g>
			<g id="XMLID_20454_">
				<path id="XMLID_20455_" class="st0" d="M154.4,428.5l4.6,62.9c0.1,1.4,0.7,2.8,1.7,3.9l27.7,29.5l11.6,34.1l-21.9,7.4
					l-12.7-37.5l-26-26.8l-8.1-73.6"/>
			</g>
			<g id="XMLID_20452_">
				<path id="XMLID_20453_" class="st1" d="M170.7,647.6c-1.5,0-3-0.2-4.5-0.7c-7.8-2.5-7.2-17.9-4.7-25.7l16.1-58.7h-49.1
					c-8.2,0-14.8-6.6-14.8-14.8c0-8.2,6.6-14.8,14.8-14.8h60.1c6.9,0,13.4,3.3,17.5,8.9c4.1,5.6,5.2,12.8,3.1,19.4l-24.4,76.1
					C182.8,643.6,177,647.6,170.7,647.6z"/>
			</g>
			<path id="XMLID_20451_" class="st2" d="M78.3,419.7L57.7,532.4l75.7,13.8l20.6-113c2-10.9-5.2-21.4-16.2-23.4l-35.9-6.6
				C90.9,401.3,80.3,408.6,78.3,419.7z"/>
			<polygon id="XMLID_20450_" class="st3" points="132.2,562.5 71,562.5 71,535.1 142.8,532.9 			"/>
			<path id="XMLID_20449_" class="st4" d="M196.4,532.9h-26.9c-3,0-5.4-2.4-5.4-5.4l0,0c0-3,2.4-5.4,5.4-5.4h26.9V532.9z"/>
			<path id="XMLID_20448_" class="st4" d="M184.9,528.7V541c0,2-1.7,3.7-3.7,3.7l0,0c-2,0-3.7-1.7-3.7-3.7v-12.3"/>
			<polygon id="XMLID_20447_" class="st5" points="242.2,510.4 241.2,504.3 236.5,504.5 238.6,515.1 			"/>
			<path id="XMLID_20446_" class="st6" d="M249,508.7l-1,2.3c-0.7,1.7-2.7,2.3-4.3,1.5l0,0l-3.9,2.6c-3.5,2.3-6.6,5-9.4,8.1
				l-3.3,3.6c-0.2,0.3-0.6,0.3-1,0.1l0,0c-0.3-0.2-0.4-0.6-0.3-0.9l2.1-4.6c1.6-3.4,3.5-6.6,5.9-9.5l1.7-2.1l0,0
				c0.2-1.1,1.1-1.9,2.1-2l0.5-0.1c1.9-0.3,3.5-1.4,4.3-3.1l0.1-0.2"/>
			<polygon id="XMLID_20445_" class="st5" points="252.9,503.6 256,506 253,510.2 250.6,508.2 			"/>
			<path id="XMLID_20444_" class="st7" d="M170.9,532.1c-4.9,5.2-7.1,11.8-5.6,18.3c-0.8,0.8-0.8,2.2,0.1,3l14.5,13.7
				c0.8,0.8,2.2,0.8,3-0.1c0.9,0.2,1.7,0.2,2.6,0.3c5.6,0.1,11.1-2.4,15.3-6.9c6.2-6.6,25.6-46.1,25.6-46.1l-10.9-10.3
				C215.5,503.9,175.1,527.6,170.9,532.1z"/>
			
				<rect id="XMLID_20443_" x="215.8" y="503.5" transform="matrix(-0.7269 -0.6867 0.6867 -0.7269 37.396 1028.2988)" class="st6" width="14.7" height="6.4"/>
			<path id="XMLID_20442_" class="st6" d="M251.9,506.7L251.9,506.7c2.2-2.2,2.1-5.9-0.3-8c-2.9-2.6-6.9-5.8-10.6-8
				c-3.1-1.8-5.8-3.1-7.9-3.9c-2.8-1.2-5.2-3.2-6.8-5.8l0,0c-0.3-0.4-0.8-0.5-1.2-0.3l0,0c-0.4,0.3-0.5,0.8-0.3,1.2l0.7,1.1
				c2,3.2,3.2,6.8,3.6,10.5l0,0l2.1-0.4l-0.3-2c-0.1-0.8,0.9-1.2,1.4-0.6l3.3,3.8l-0.6,8.2l0.4,0.6c0.7,1.1,1.7,1.9,3,2.3l8,2.6
				C248.3,508.7,250.5,508.2,251.9,506.7z"/>
			<path id="XMLID_20441_" class="st6" d="M221.4,500.7l7.8,7.4c0.6,0.6,1.6,0.6,2.2-0.1l0,0c0.6-0.6,0.6-1.6-0.1-2.2l-7.8-7.4
				c-0.6-0.6-1.6-0.6-2.2,0.1l0,0C220.8,499.1,220.8,500.1,221.4,500.7z"/>
			<path id="XMLID_20440_" class="st6" d="M223.3,498.1l8.4,7.9l3.5-3.7c2.2-2.3,2.1-6-0.2-8.1l0,0c-2.3-2.2-6-2.1-8.1,0.2
				L223.3,498.1z"/>
			<path id="XMLID_20439_" class="st8" d="M238.3,501.6c-0.5,0.3-0.7,1-0.4,1.6c0.3,0.5,1,0.7,1.6,0.4c0.5-0.3,0.7-1,0.4-1.6
				C239.5,501.5,238.8,501.3,238.3,501.6z"/>
			<path id="XMLID_20438_" class="st6" d="M252.6,510l3-3.8c0.4-0.6,1.3-0.6,1.8-0.1l2.3,2.3c1.1,1.2,1.2,3.1,0.2,4.4v0
				c-1.1,1.3-3,1.7-4.4,0.7l-2.6-1.7C252.3,511.3,252.2,510.5,252.6,510z"/>
			<path id="XMLID_20437_" class="st9" d="M170.9,532.1c-4.9,5.2-7.1,11.8-5.6,18.3c-0.8,0.8-0.8,2.2,0.1,3l14.5,13.7
				c0.8,0.8,2.2,0.8,3-0.1c0.9,0.2,1.7,0.2,2.6,0.3l-4.4-8.6c-6-11.8-2-26.2,9.1-33.2l28.8-18.1l-3.5-3.3
				C215.5,503.9,175.1,527.6,170.9,532.1z"/>
			<path id="XMLID_20427_" class="st4" d="M111.4,388.2l-2.3,12.4c-0.1,0.4-0.1,0.8-0.2,1.1c-0.7,7.2,4.2,13.9,11.4,15.2l10.1,1.8
				c3.5,0.6,6.8-1.7,7.4-5.1l2.8-15.4L111.4,388.2z"/>
			<path id="XMLID_20425_" class="st10" d="M111.2,389.4l-2.1,11.2c-0.1,0.4-0.1,0.8-0.2,1.1c4.1,3.3,9,5.6,14.4,6.6l5.2,1
				c3.4,0.6,6.8,0.6,10.1-0.1c0,0,0.1,0,0.1,0l1.8-9.7l-0.1,0L111.2,389.4z"/>
			<path id="XMLID_20424_" class="st11" d="M111.5,388.2l-2.3,12.4c-0.1,0.4-0.1,0.8-0.2,1.1c-0.7,7.2,4.2,13.9,11.4,15.2l12.1,2.2
				c2.3,0.4,4.5-1.1,5-3.4l3.2-17.4L111.5,388.2z"/>
			<polygon id="XMLID_20423_" class="st3" points="60.5,546.2 67.2,556.4 92.9,565.8 99.6,562.4 99.6,548 			"/>
			<path id="XMLID_20422_" class="st1" d="M63.1,550.3c-3.4-4.2-5.4-9.6-5.4-15.4v-1.9h91h-14"/>
			<line id="XMLID_20421_" class="st1" x1="99.9" y1="562.5" x2="141.9" y2="562.5"/>
			<path id="XMLID_20420_" class="st1" d="M84,532.9L84,532.9c0,4.6-1.8,9.1-5.1,12.4l-2.1,2.1"/>
			<polygon id="XMLID_20419_" class="st7" points="129.2,507.8 115.5,520.6 105.7,503.5 126.7,424.7 136.9,426.6 			"/>
			<polygon id="XMLID_20418_" class="st12" points="57.7,532.8 58.7,527.5 136,532.9 			"/>
			<path id="XMLID_20417_" class="st2" d="M106.5,404.1l0.9-5c0.2-1.1,1.2-1.8,2.3-1.6l0,0l19.9,17l-3.1,17.1
				c-0.1,0.4-0.6,0.5-0.8,0.2L106.5,404.1z"/>
			<path id="XMLID_20416_" class="st7" d="M134.3,426.1l-4.5-0.8c-1.1-0.2-1.9-1.3-1.7-2.4l1.1-6.2c0.2-1.1,1.3-1.9,2.4-1.7l4.5,0.8
				c1.1,0.2,1.9,1.3,1.7,2.4l-1.1,6.2C136.6,425.6,135.5,426.3,134.3,426.1z"/>
			<path id="XMLID_20415_" class="st2" d="M138.8,409l-2.5,24.1l6.4-16.2l0.3-11.7c0-0.5-0.3-0.9-0.8-1l-2.5-0.5L138.8,409z"/>
			<path id="XMLID_20412_" class="st13" d="M205.6,497.6"/>
			<path id="XMLID_20411_" class="st13" d="M213.3,515.9"/>
			<path id="XMLID_20410_" class="st13" d="M226.8,505.8"/>
			<path id="XMLID_20409_" class="st13" d="M209.8,519.5"/>
			<path id="XMLID_20408_" class="st13" d="M219.4,502.9"/>
			<path id="XMLID_20407_" class="st13" d="M216.3,521.4"/>
			<path id="XMLID_20406_" class="st4" d="M216.3,523.8l1.1,0.9c1.4,1,1.2,3.3-0.3,4.3c-0.9,0.6-2.1,0.4-2.9-0.2l-2-1.5l-4.7-3.5
				l-6.6-4.9l-1.9-1.4c-2.4-1.8-4.4-4.2-5.6-7c0,0-5.1-3.8-5.4-4.1c0.1-0.1,0.1-0.2,0.1-0.2l7.9-12.9l4.2,2.7c1,0.7,2.3,0.8,3.5,0.5
				l1.3-0.7c1.1-0.6,2.4-0.9,3.7-0.8l1.1,0.1c0,0,14.3,2.1,14.4,2.2c0,0-1.7,0.9-3.3,1.7c-1.8,0.9-3.1,2.4-3.6,4.3l0,0
				c-0.5,0.8-0.4,1.9,0.4,2.5l1.8,1.7l14.9,11.1c1.2,0.9,1.4,2.7,0.3,3.8c-0.9,0.9-2.7,0.8-3.8,0l-3.7-2.7"/>
			<path id="XMLID_20405_" class="st4" d="M230.2,515.5l8.6,6.4c1.4,1.1,1.8,3.1,0.7,4.5l-0.1,0.1c-1.1,1.4-3.1,1.8-4.5,0.7
				l-10.5-7.6"/>
			<path id="XMLID_20404_" class="st4" d="M224.4,519.7l4.5,3.3c1.4,1.1,1.8,3.1,0.7,4.5l-0.1,0.1c-1.1,1.4-3.1,1.8-4.5,0.7
				l-8.2-5.9"/>
			<path id="XMLID_20403_" class="st4" d="M216.8,522.4l4,2.9c1.4,1.1,1.8,3.1,0.7,4.5l-0.1,0.1c-1.1,1.4-3.1,1.8-4.5,0.7l-6.6-4.8"
				/>
			<path id="XMLID_20402_" class="st2" d="M91.8,435l92.7,73.7c1,0.8,2.4,0.6,3.2-0.4l10.9-14.5c0.7-1,0.5-2.3-0.4-3.1l-98.4-79"/>
			<path id="XMLID_20401_" class="st14" d="M111.8,342l-4.1,22.3l0,0c-3.2,17.7,8.5,34.6,26.2,37.9l5.2,1c14.8,2.7,29-7.1,31.7-21.9
				l5.3-28.8l0.7-4c1.7-9.1-4.4-17.8-13.4-19.4l-31.2-5.7c-9.1-1.7-17.8,4.4-19.4,13.4l-1.4,7.9"/>
			
				<rect id="XMLID_20400_" x="162.1" y="356.2" transform="matrix(-0.9837 -0.1796 0.1796 -0.9837 268.8116 746.5119)" class="st10" width="12.3" height="9.7"/>
			<path id="XMLID_20399_" class="st10" d="M137.8,360.5l9.8,1.8c2,0.4,3.9-1,4.2-2.9l1.1-6l-16.8-3.1l-1.1,6.2
				C134.7,358.3,135.9,360.1,137.8,360.5z"/>
			<path id="XMLID_20397_" class="st10" d="M111.8,342l-4.1,22.3c0,0,0,0,0,0c-3.2,17.7,8.5,34.6,26.2,37.8l5.2,1
				c0.3,0.1,0.7,0.1,1,0.2c-17-3.7-28.2-20.3-25-37.6c0,0,0,0,0,0l4.1-22.3l-0.5,2.7l1.4-7.9c1.7-9,10.3-15.1,19.4-13.4l-7.3-1.3
				c-9.1-1.7-17.8,4.4-19.4,13.4l-1.4,7.9L111.8,342z"/>
			<path id="XMLID_20396_" class="st11" d="M111.8,341.9l-4.1,22.3v0c-3.2,17.7,8.5,34.6,26.2,37.9l5.2,1c14.8,2.7,29-7.1,31.7-21.9
				l5.3-28.8l0.7-4c1.7-9.1-4.4-17.8-13.4-19.4l-31.2-5.7c-9.1-1.7-17.8,4.4-19.4,13.4l-1.4,7.9"/>
			<path id="XMLID_20395_" class="st11" d="M153.8,378.4c2.7,0.5,5.2-1.3,5.7-4l2-10.9"/>
			<path id="XMLID_20394_" class="st15" d="M104.6,359.1"/>
			<path id="XMLID_20393_" class="st16" d="M138.1,351.4l12.4,2.3c1.1,0.2,2.2-0.5,2.5-1.7l0,0c0.2-1.1-0.5-2.2-1.7-2.5l-12.4-2.3
				c-1.1-0.2-2.2,0.5-2.5,1.7l0,0C136.2,350.1,137,351.2,138.1,351.4z"/>
			<g id="XMLID_20391_">
				<path id="XMLID_20392_" class="st17" d="M109.7,331.6c2.8-15.5,17.7-25.8,33.2-23l0.1,0l34,6.2c9,1.6,15,10.3,13.3,19.3v0
					c-1.6,9-10.3,15-19.3,13.3l-34.9-6.4c-5-0.9-10,1.8-12,6.5l-4.5,10.8c-1.5,3.6-6.7,3.3-7.8-0.4l-5.7-6.9l3.5-19.4L109.7,331.6z"
					/>
			</g>
			<g id="XMLID_20389_" class="st18">
				<path id="XMLID_20390_" class="st19" d="M115.4,352.6l-0.3,2.5l0.9,5.5c-1.5,3.6-3,1-4.1-2.7l-5.7-6.9l3.6-19.5
					c2.8-15.5,17.7-25.8,33.2-23l9.2,1.7c-15.5-2.8-30.4,7.4-33.2,23L115.4,352.6z"/>
			</g>
			<g id="XMLID_20387_">
				<path id="XMLID_20388_" class="st11" d="M109.7,331.5c2.8-15.5,17.7-25.8,33.2-23l0.1,0l34,6.2c9,1.6,15,10.3,13.3,19.3l0,0
					c-1.6,9-10.3,15-19.3,13.3l-34.9-6.4c-5-0.9-10,1.8-12,6.5l-4.5,10.8c-1.5,3.6-6.7,3.3-7.8-0.4l-5.7-6.9l3.5-19.4L109.7,331.5z"
					/>
			</g>
			<path id="XMLID_20386_" class="st16" d="M165,356.3l8,1.5c1.1,0.2,2.2-0.5,2.5-1.7l0,0c0.2-1.1-0.5-2.2-1.7-2.5l-8-1.5
				c-1.1-0.2-2.2,0.5-2.5,1.7l0,0C163.1,355,163.8,356.1,165,356.3z"/>
			<path id="XMLID_20385_" class="st20" d="M115.9,361.2c0.8-4.4-2.1-8.7-6.5-9.5c-4.4-0.8-8.7,2.1-9.5,6.5
				c-0.8,4.4,2.1,8.7,6.5,9.5c1.4,0.3,2.9,0.1,4.2-0.3"/>
			<path id="XMLID_20384_" class="st15" d="M108.5,356.5c-1.8-0.3-3.5,0.9-3.8,2.7"/>
			<path id="XMLID_20383_" class="st11" d="M142,383.8L142,383.8c1.7,1.7,3.9,2.8,6.3,3.3l11.3,2.1"/>
			<path id="XMLID_20382_" class="st2" d="M149.3,362.6c-0.4,2.2-2.5,3.7-4.7,3.3c-2.2-0.4-3.7-2.5-3.3-4.7c0.4-2.2,2.5-3.7,4.7-3.3
				C148.3,358.2,149.7,360.4,149.3,362.6z"/>
			<path id="XMLID_20381_" class="st2" d="M172.4,366.8c-0.4,2.2-2.5,3.7-4.7,3.3s-3.7-2.5-3.3-4.7c0.4-2.2,2.5-3.7,4.7-3.3
				C171.4,362.5,172.8,364.6,172.4,366.8z"/>
			<g id="XMLID_20380_">
				<g id="XMLID_18356_">
					<path class="st21" d="M146.2,364.8c-0.1,0-0.2,0-0.3,0c-0.5-0.1-0.9-0.4-1.2-0.8c-0.3-0.4-0.4-0.9-0.3-1.4
						c0.2-0.9,0.9-1.6,1.9-1.6c0.1,0,0.2,0,0.3,0c0.5,0.1,0.9,0.4,1.2,0.8c0.3,0.4,0.4,0.9,0.3,1.4
						C147.9,364.2,147.1,364.8,146.2,364.8z"/>
					<path class="st21" d="M146.2,361.3c0.1,0,0.2,0,0.3,0c0.9,0.2,1.5,1,1.3,1.9c-0.1,0.8-0.8,1.4-1.6,1.4c-0.1,0-0.2,0-0.3,0
						c-0.9-0.2-1.5-1-1.3-1.9C144.7,361.8,145.4,361.3,146.2,361.3 M146.2,360.8L146.2,360.8c-1,0-1.9,0.7-2.1,1.7
						c-0.2,1.2,0.6,2.3,1.7,2.5c0.1,0,0.3,0,0.4,0c1,0,1.9-0.7,2.1-1.7c0.1-0.6,0-1.1-0.3-1.6c-0.3-0.5-0.8-0.8-1.4-0.9
						C146.4,360.8,146.3,360.8,146.2,360.8L146.2,360.8z"/>
				</g>
			</g>
			<g id="XMLID_20379_">
				<g id="XMLID_18355_">
					<path class="st21" d="M169.3,369.3c-0.1,0-0.2,0-0.3,0c-0.5-0.1-0.9-0.4-1.2-0.8c-0.3-0.4-0.4-0.9-0.3-1.4
						c0.2-0.9,0.9-1.6,1.9-1.6c0.1,0,0.2,0,0.3,0c0.5,0.1,0.9,0.4,1.2,0.8c0.3,0.4,0.4,0.9,0.3,1.4
						C171,368.6,170.2,369.3,169.3,369.3z"/>
					<path class="st21" d="M169.3,365.7c0.1,0,0.2,0,0.3,0c0.9,0.2,1.5,1,1.3,1.9c-0.1,0.8-0.8,1.4-1.6,1.4c-0.1,0-0.2,0-0.3,0
						c-0.9-0.2-1.5-1-1.3-1.9C167.8,366.3,168.5,365.7,169.3,365.7 M169.3,365.3L169.3,365.3c-1,0-1.9,0.7-2.1,1.7
						c-0.1,0.6,0,1.1,0.3,1.6c0.3,0.5,0.8,0.8,1.4,0.9c0.1,0,0.3,0,0.4,0c1,0,1.9-0.7,2.1-1.7c0.1-0.6,0-1.1-0.3-1.6
						c-0.3-0.5-0.8-0.8-1.4-0.9C169.5,365.3,169.4,365.3,169.3,365.3L169.3,365.3z"/>
				</g>
			</g>
			<path id="XMLID_20378_" class="st22" d="M91.8,435l48,38.2l-3.5,8.8l-38.6-30.4C92.8,447.7,90.5,441.3,91.8,435L91.8,435z"/>
			<g id="XMLID_20376_">
				<path id="XMLID_20377_" class="st1" d="M98.7,555.5l31.8,67.4c3.2,6.7,2,14.6-3,20c-3.5,3.9-8.4,6-13.5,6
					c-2.1,0-4.2-0.4-6.2-1.1l-88.3-31.7c-7.7-2.8-11.7-11.3-8.9-19c2.8-7.7,11.3-11.7,19-8.9l62.3,22.4l-28.7-60.3"/>
			</g>
			<path id="XMLID_20375_" class="st23" d="M66.5,601.3l-39.9-14.4c-1.4-0.5-2.8-0.7-4.2-0.7H6.3c-2,0-3.6,1.6-3.6,3.6v57.8h5.2
				c5.4,0,10.1-3.7,11.4-8.9l3.7-14.8c0.8-3.4,4.4-5.2,7.6-4l23.4,8.5L66.5,601.3z"/>
			<path id="XMLID_20374_" class="st23" d="M55.7,634.3L55.7,634.3c-3.1-1.2-4.5-4.7-3.3-7.8l10-24.7c1.2-3.1,4.7-4.5,7.8-3.3v0
				c3.1,1.2,4.5,4.7,3.3,7.8l-10,24.7C62.2,634.1,58.7,635.6,55.7,634.3z"/>
			<path id="XMLID_20373_" class="st23" d="M167.2,581L167.2,581c0.8-3.2,4.1-5.1,7.3-4.3l25.8,6.6c3.2,0.8,5.1,4.1,4.3,7.3l0,0
				c-0.8,3.2-4.1,5.1-7.3,4.3l-25.8-6.6C168.3,587.5,166.4,584.2,167.2,581z"/>
			<path id="XMLID_20372_" class="st23" d="M169.6,587.4l-12.4,39.8c-0.8,2.7-1.3,5.4-1.3,8.2v12.8h60.4v-6.3c0-5-3.5-9.3-8.3-10.3
				l-13.2-2.9c-3.7-0.8-5.8-4.6-4.7-8.1l8.2-25.6L169.6,587.4z"/>
			<path id="XMLID_20371_" class="st2" d="M6.5,647.6H3.5c-1.4,0-2.5-1.1-2.5-2.5v-56.3c0-1.4,1.1-2.5,2.5-2.5h2.9V647.6z"/>
			<linearGradient id="XMLID_22_" gradientUnits="userSpaceOnUse" x1="332.5291" y1="618.7787" x2="248.1696" y2="484.5818">
				<stop  offset="0.1179" style="stop-color:#FFFFFF"/>
				<stop  offset="0.4425" style="stop-color:#E3F4F3"/>
				<stop  offset="0.7841" style="stop-color:#CCEBE9"/>
				<stop  offset="1" style="stop-color:#C4E8E5"/>
			</linearGradient>
			<polygon id="XMLID_20461_" class="st24" points="259.9,512.7 257.8,639.8 393.4,575.6 			"/>
			<rect id="XMLID_20370_" x="155.9" y="643.4" class="st2" width="60.4" height="4.2"/>
		</g>
	</g>
	<g class="st25">
		<line id="XMLID_20436_" class="st26" x1="601.5" y1="648.2" x2="95.6" y2="648.2"/>
	</g>
	<g class="st25">
		<g id="XMLID_20428_" class="st27">
			<path id="XMLID_20435_" class="st28" d="M306,627.9c0,0-2.8-9.6-7.2-15.7c-0.3-0.4,0.3-1,0.7-0.6c4.2,3.9,8,10.4,8,10.4"/>
			<path class="st28" d="M319.3,598.2c-1.9,0.7-4.1,2-6.2,3.9c-2.1,1.9-4.2,4.5-5.8,7.7c-0.2,0.4-0.4,0.8-0.6,1.2
				c-0.2,0.4-0.4,0.8-0.5,1.3c-0.3,0.9-0.6,1.9-0.8,2.8l-0.1,0.7l0,0.2l0,0.1l0,0l0,0.1l0,0.4c0,0.5-0.1,1-0.1,1.5c0,0.5,0,1,0,1.5
				c0,0.5,0,1,0.1,1.5c0.4,4.1,1.3,8.2,2.1,12.4c0.8,4.2,1.4,8.4,1.5,12.8l5.6-0.5c-0.6-4.7-1.7-9.1-2.9-13.3
				c-1.2-4.2-2.5-8.1-3.2-11.8c-0.1-0.5-0.2-0.9-0.2-1.4c0-0.4-0.1-0.9-0.1-1.3c0-0.4,0-0.9,0-1.3l0-0.3c0,0,0-0.1,0,0l0,0l0-0.1
				l0-0.2l0.1-0.7c0.1-1,0.3-1.7,0.5-2.5c0.1-0.4,0.2-0.8,0.4-1.2c0.1-0.4,0.2-0.8,0.4-1.2c1.2-3.1,2.9-5.7,4.8-7.6
				c1.8-2,3.8-3.4,5.6-4.2C320,598.5,319.7,598,319.3,598.2z"/>
			<path id="XMLID_20432_" class="st29" d="M291.5,648.2h30.4l0,0c0-6.4-5.2-11.6-11.6-11.6h-7.2
				C296.7,636.6,291.5,641.8,291.5,648.2L291.5,648.2z"/>
			<path id="XMLID_20431_" class="st28" d="M301.4,613.6c2.4-9.7-5.2-21.7-23.3-18.9c0.4,3.9,1.2,7.1,2.3,9.7
				c4.2,9.9,13.8,11.4,16.3,11.1C302.1,614.9,301.4,613.7,301.4,613.6z"/>
			<path id="XMLID_20430_" class="st28" d="M313.4,601.8c8.6,5.1,22.2,1.2,24.8-16.9c-3.9-0.8-7.1-0.9-9.9-0.6
				c-10.7,1.2-14.8,10-15.3,12.5C312,602.1,313.4,601.8,313.4,601.8z"/>
		</g>
		<path class="st30" d="M305.5,619.5c-4.3-13.3,4.7-19.7-8.7-39.3"/>
		<g class="st27">
			<path class="st11" d="M309.6,564.3c2.8,15.8-6.1,19.1-5.1,36.1"/>
			<path class="st23" d="M305,569l5,2.1c5,2.1,11.4-1.9,14.3-8.9c2.9-7,1.2-14.4-3.8-16.5l-5-2.1L305,569z"/>
			
				<ellipse transform="matrix(0.375 -0.927 0.927 0.375 -321.9816 634.7119)" class="st31" cx="309.7" cy="556.1" rx="13.7" ry="9.8"/>
		</g>
		<g class="st27">
			<path class="st23" d="M297.5,585.9l3.6-3.1c2.8-2.5,0.9-9.1-4.1-14.7c-5.1-5.6-11.4-8.2-14.2-5.7l-3.6,3.1L297.5,585.9z"/>
			<path class="st31" d="M278.1,566.6c2.8-2.5,9.2,0.1,14.2,5.7c5.1,5.6,6.9,12.2,4.1,14.7c-2.8,2.5-9.2-0.1-14.2-5.7
				C277.2,575.6,275.4,569,278.1,566.6z"/>
		</g>
	</g>
	<g>
		<path id="XMLID_20296_" class="st28" d="M331.1,521.4c10.7-3.4,22.6,3.5,22.6,3.5s-5.4,12.6-16.1,16c-10.7,3.4-22.6-3.5-22.6-3.5
			S320.4,524.9,331.1,521.4z"/>
		<path id="XMLID_20289_" class="st28" d="M353.3,515.1c9.8,2.7,15.3,13.9,15.3,13.9s-10.5,6.8-20.3,4.1
			c-9.8-2.7-15.3-13.9-15.3-13.9S343.4,512.4,353.3,515.1z"/>
		<path id="XMLID_20429_" class="st28" d="M346.2,485c3.5,8.6-1.5,18.9-1.5,18.9s-10.8-3.8-14.4-12.4c-3.5-8.6,1.5-18.9,1.5-18.9
			S342.6,476.3,346.2,485z"/>
		<g>
			<path class="st23" d="M340.4,559.7c-1.5,1.4-4.7,0.5-3.3,2l3.8,4c2.6,2.7,9.2,0.8,14.8-4.3c5.6-5.1,8-11.5,5.4-14.3l-0.6-0.6
				c-1.4-1.6-3.9-1.7-5.5-0.3L340.4,559.7z"/>
			
				<ellipse transform="matrix(0.7366 -0.6763 0.6763 0.7366 -281.9747 379.8741)" class="st31" cx="346.7" cy="551.9" rx="13.7" ry="6.8"/>
		</g>
		<g>
			<path class="st23" d="M370,480.4c-0.2-2-3.9-3.6-1.8-3.8l6.3-0.3c3.8-0.2,7.3,5.7,7.9,13.2c0.6,7.5-2,13.8-5.7,14.1l-0.9,0.1
				c-2.1,0.2-4-1.4-4.2-3.5L370,480.4z"/>
			<path class="st31" d="M370.4,504c3.8-0.2,6.3-6.5,5.7-14.1c-0.6-7.5-4.1-13.5-7.9-13.2c-3.8,0.2-6.3,6.5-5.7,14.1
				C363.1,498.3,366.7,504.3,370.4,504z"/>
		</g>
		<path id="XMLID_20460_" class="st28" d="M357.4,519.5c-5.3-7.7-14.6-11.7-19.1-14.3c-0.6-0.4-0.2-1.3,0.5-1.1
			c4.6,1.2,18.4,2.7,23.9,11.8"/>
		<path id="XMLID_20459_" class="st28" d="M341.5,506.2c-7.7,6.3-21.8,4.5-27-13.1c3.7-1.3,6.9-1.9,9.7-2c10.7-0.3,16.1,7.7,17,10.1
			C343,506.3,341.5,506.2,341.5,506.2z"/>
		<path id="XMLID_20458_" class="st28" d="M395.8,528.4c3.2-9.6-3-20.3-3-20.3s-11.4,4.8-14.5,14.4c-3.2,9.6,3,20.3,3,20.3"/>
		<path id="XMLID_20457_" class="st28" d="M358.7,550c5.3-8.1,16.9-9.8,16.9-9.8s3.1,11.4-2.2,19.4c-5.3,8.1-16.9,9.8-16.9,9.8
			S353.5,558,358.7,550z"/>
		<g id="XMLID_20294_">
			<path id="XMLID_20433_" class="st32" d="M356.6,518.5l7,11.8l14.7,19.1l9.3,18.7c0.9,1.3,3.7,10.1,5.9,17.6l7.5,0.3
				c-1.1-3.4-5.4-18.8-5.9-19.6l-10.5-20.4c-0.2-0.5-0.5-0.9-0.9-1.4L369.3,526l-7.4-11"/>
			<path id="XMLID_20295_" class="st33" d="M400.1,583c4.7,15,8.2,29.4,8.2,29.4l-8.1-2.7c0,0-3.1-11.6-7.6-26.9"/>
		</g>
		<path id="XMLID_20293_" class="st28" d="M368.4,510.3c-2.5,9.9,4.5,20.4,4.5,20.4s11.1-5.7,13.6-15.6c2.5-9.9-4.5-20.4-4.5-20.4
			S370.9,500.4,368.4,510.3z"/>
		<path id="XMLID_20283_" class="st29" d="M411.5,618.8L411.5,618.8c-1.7-6.4-8.3-10.2-14.7-8.5l-4.3,1.2
			c-6.4,1.7-10.2,8.3-8.5,14.7l0,0"/>
		<path id="XMLID_20282_" class="st29" d="M399,614.1c0.6-5.7,7.7-11.8,13.1-13.2l3.4-0.9c10-2.7,20.3,3.3,23,13.3l0,0l-39.7,10.6
			l-14.9,4"/>
		<path id="XMLID_20281_" class="st28" d="M398.7,585.1c2-8.8,6.9-18.3,9.5-22.8c0.4-0.6-0.5-1.2-1-0.7c-3.3,3.3-9.2,9.9-11.2,15.3"
			/>
		<path id="XMLID_20280_" class="st28" d="M405.8,564.7c9.8,1.6,21.1-7.1,16.8-24.8c-3.9,0.7-7,1.8-9.4,3.1
			c-9.5,5.1-10.1,14.7-9.6,17.2C404.6,565.6,405.8,564.7,405.8,564.7z"/>
		<g>
			<path class="st11" d="M380.8,497c-4.9,5.7-9,17.1-7.6,32.9"/>
			<path class="st23" d="M374.3,504.2l4.3,3.4c4.2,3.4,11.5,1.3,16.2-4.6c4.7-5.9,5.1-13.5,0.9-16.9l-4.3-3.4L374.3,504.2z"/>
			
				<ellipse transform="matrix(0.6149 -0.7886 0.7886 0.6149 -241.572 491.4526)" class="st31" cx="382.4" cy="493.1" rx="13.7" ry="9.8"/>
		</g>
		<g>
			<path class="st11" d="M345,524.6c7.5,0.8,18.7,5.1,28.7,17.4"/>
			<path class="st23" d="M354.7,525.4l-0.7,5.4c-0.7,5.4-7.4,8.9-14.9,7.8c-7.5-1-13-6.2-12.3-11.6l0.7-5.4L354.7,525.4z"/>
			
				<ellipse transform="matrix(0.1445 -0.9895 0.9895 0.1445 -225.6104 784.9475)" class="st31" cx="341.1" cy="522.9" rx="9.8" ry="13.7"/>
		</g>
		<g>
			<path class="st11" d="M388.9,514.8c-3.5,6.6-8,17.3-3.2,32.4"/>
			<path class="st23" d="M384.2,523.2l4.9,2.4c4.9,2.4,11.5-1.3,14.7-8.1c3.3-6.8,2-14.3-2.9-16.7l-4.9-2.4L384.2,523.2z"/>
			
				<ellipse transform="matrix(0.425 -0.9052 0.9052 0.425 -238.1747 646.2411)" class="st31" cx="389.6" cy="510.6" rx="13.7" ry="9.8"/>
		</g>
		<g>
			<path class="st23" d="M350,492.8c0.2,2-1.7,4.3,0.3,4.2l4.7-0.8c3.7-0.3,6.1-6.7,5.4-14.3c-0.7-7.5-4.3-13.4-8-13.1l-6.2,0.6
				c-2.1,0.1,1.6,1.4,1.8,3.6L350,492.8z"/>
			<path class="st31" d="M346.4,469.3c3.7-0.3,7.3,5.5,8,13.1c0.7,7.5-1.7,13.9-5.4,14.3c-3.7,0.3-7.3-5.5-8-13.1
				C340.2,476,342.6,469.7,346.4,469.3z"/>
		</g>
		<path id="XMLID_20288_" class="st34" d="M402.1,537.7c-6.6,7.6-19,7.7-19,7.7s-1.6-12.2,5-19.9c6.6-7.6,19-7.7,19-7.7
			S408.7,530.1,402.1,537.7z"/>
		<path id="XMLID_20456_" class="st28" d="M354.5,533c11.2-0.2,20.4,10,20.4,10s-8.9,10.4-20.1,10.6c-11.2,0.2-20.4-10-20.4-10
			S343.3,533.1,354.5,533z"/>
		<path id="XMLID_20290_" class="st28" d="M352.6,498.4c-1.3,10.1,7,19.5,7,19.5s10.3-7,11.6-17.2c1.3-10.1-7-19.5-7-19.5
			S353.9,488.3,352.6,498.4z"/>
	</g>
	<g>
		<path id="XMLID_20_" class="st28" d="M518.9,523c-9.2-4.9-21.2,0.3-21.2,0.3s3,13.2,12.3,18.1c9.2,4.9,21.2-0.3,21.2-0.3
			S528.1,527.9,518.9,523z"/>
		<path id="XMLID_19_" class="st28" d="M499.7,513.7c-9.4,1.3-16.1,11.6-16.1,11.6s8.5,8.2,17.9,6.9c9.4-1.3,16.1-11.6,16.1-11.6
			S509,512.4,499.7,513.7z"/>
		<path id="XMLID_18_" class="st28" d="M510.7,484.9c-4.5,8.1-1.5,18.9-1.5,18.9s10.4-2.2,15-10.3c4.5-8.1,1.5-18.9,1.5-18.9
			S515.2,476.8,510.7,484.9z"/>
		<g>
			<path class="st23" d="M504.7,559.6c1.2,1.6,4.2,1.1,2.7,2.5l-4.1,3.4c-2.8,2.4-8.5-0.5-12.8-6.3c-4.3-5.9-5.6-12.5-2.8-14.9
				l0.6-0.6c1.5-1.4,3.8-1.2,5,0.5L504.7,559.6z"/>
			
				<ellipse transform="matrix(0.8199 -0.5725 0.5725 0.8199 -225.4131 385.5944)" class="st31" cx="500.1" cy="551" rx="6.6" ry="13.2"/>
		</g>
		<g>
			<path class="st23" d="M489.6,477.1c0.5-2,4.1-3,2.2-3.5l-5.7-1.1c-3.4-0.8-7.5,4.6-9.2,12c-1.7,7.4-0.3,14,3.1,14.7l0.8,0.2
				c1.9,0.5,3.9-0.8,4.4-2.9L489.6,477.1z"/>
			<path class="st31" d="M485.7,500.4c-3.4-0.8-4.8-7.3-3.1-14.7c1.7-7.4,5.8-12.7,9.2-12c3.4,0.8,4.8,7.3,3.1,14.7
				S489.1,501.1,485.7,500.4z"/>
		</g>
		<path id="XMLID_17_" class="st28" d="M495.3,517.5c6-6.9,15.1-9.5,19.6-11.5c0.6-0.3,0.4-1.2-0.3-1.2c-4.3,0.5-17.2,0.1-23.5,8.4"
			/>
		<path id="XMLID_16_" class="st28" d="M511.7,506.5c6.1,7.3,19.2,7.4,26.6-9.2c-3.2-1.8-6-2.9-8.5-3.4c-9.7-1.8-15.9,5.4-17,7.6
			C510.4,506.5,511.7,506.5,511.7,506.5z"/>
		<path id="XMLID_15_" class="st28" d="M458.9,520.9c-1.5-9.9,5.8-19.6,5.8-19.6s9.6,6.4,11.1,16.3c1.5,9.9-5.8,19.6-5.8,19.6"/>
		<path id="XMLID_14_" class="st28" d="M489.4,547.4c-3.6-8.7-13.9-12-13.9-12s-4.5,10.8-0.9,19.5c3.6,8.7,13.9,12,13.9,12
			S493,556.1,489.4,547.4z"/>
		<g id="XMLID_11_">
			<path id="XMLID_13_" class="st32" d="M496.2,516.6l-8.1,10.7L471.8,544l-11.3,17.2c-1,1.2-4.9,9.5-8.1,16.5l-6.9-0.7
				c1.5-3.2,7.8-17.8,8.4-18.5l12.7-18.7c0.3-0.4,0.6-0.8,1-1.2l15.8-16.4l8.4-9.8"/>
			<path id="XMLID_12_" class="st33" d="M446.7,574.3c-6.6,14.1-11.9,28-11.9,28l7.8-1.6c0,0,4.5-11.1,11-25.5"/>
		</g>
		<path id="XMLID_10_" class="st28" d="M486.6,506.9c0.8,10.2-7.2,19.5-7.2,19.5s-9.3-7.1-10.1-17.3c-0.8-10.2,7.2-19.5,7.2-19.5
			S485.8,496.7,486.6,506.9z"/>
		<path id="XMLID_9_" class="st29" d="M431,608.2L431,608.2c2.5-6.1,9.1-9,14.7-6.4l3.8,1.7c5.6,2.6,8.1,9.6,5.5,15.7l0,0"/>
		<path id="XMLID_8_" class="st29" d="M443.1,605.2c0.3-5.7-5.2-12.7-10-14.9l-3-1.4c-8.7-4-19,0.4-22.9,9.9l0,0l34.6,16l13,6"/>
		<path id="XMLID_7_" class="st28" d="M447.7,576.5c-0.5-8.9-3.5-19.1-5.2-23.9c-0.2-0.7,0.6-1.2,1-0.6c2.6,3.7,6.9,11.1,7.9,16.7"
			/>
		<path id="XMLID_6_" class="st28" d="M444.3,555.5c-9.2,0.2-18.2-9.9-11.6-26.9c3.4,1.2,6.1,2.7,8.1,4.4c7.9,6.3,7,16,6.2,18.4
			C445.2,556.5,444.3,555.5,444.3,555.5z"/>
		<g>
			<path class="st11" d="M477.3,492c3.6,6.3,5.6,18.2,2,33.6"/>
			<path class="st23" d="M482.1,500l-4.4,2.8c-4.4,2.8-10.6-0.3-14-6.8c-3.4-6.5-2.6-14.1,1.8-16.8l4.4-2.8L482.1,500z"/>
			
				<ellipse transform="matrix(0.9218 -0.3878 0.3878 0.9218 -151.914 222.9125)" class="st31" cx="476.4" cy="487.9" rx="9.3" ry="13.4"/>
		</g>
		<g>
			<path class="st11" d="M505.7,524.3c-6.9-0.3-17.8,2.4-28.8,13.2"/>
			<path class="st23" d="M496.9,523.6l-0.2,5.5c-0.2,5.4,5.4,9.8,12.4,9.8c7,0,12.8-4.4,13-9.8l0.2-5.5L496.9,523.6z"/>
			
				<ellipse transform="matrix(0.9992 -3.976839e-02 3.976839e-02 0.9992 -20.4018 20.6776)" class="st31" cx="509.5" cy="523.2" rx="12.7" ry="9.8"/>
		</g>
		<g>
			<path class="st11" d="M467.3,508.4c2.2,7.1,4.7,18.2-2,32.5"/>
			<path class="st23" d="M470.3,517.4l-4.8,1.7c-4.8,1.7-10.3-2.8-12.2-10c-1.9-7.2,0.4-14.4,5.2-16.1l4.8-1.7L470.3,517.4z"/>
			
				<ellipse transform="matrix(0.9791 -0.2034 0.2034 0.9791 -92.7886 105.5733)" class="st31" cx="467.2" cy="504.2" rx="9.2" ry="13.6"/>
		</g>
		<g>
			<path class="st23" d="M506,492.1c-0.5,2,0.9,4.5-0.9,4.1l-4.2-1.5c-3.3-0.8-4.6-7.5-2.8-14.8c1.8-7.4,5.9-12.6,9.3-11.8l5.5,1.5
				c1.9,0.4-1.7,1.2-2.2,3.3L506,492.1z"/>
			<path class="st31" d="M512.9,469.4c-3.3-0.8-7.5,4.4-9.3,11.8c-1.8,7.4-0.5,14,2.8,14.8c3.3,0.8,7.5-4.4,9.3-11.8
				C517.5,476.9,516.2,470.3,512.9,469.4z"/>
		</g>
		<path id="XMLID_5_" class="st34" d="M451.7,529.2c4.9,8.4,16.1,10.3,16.1,10.3s3.3-11.9-1.6-20.3c-4.9-8.4-16.1-10.3-16.1-10.3
			S446.8,520.8,451.7,529.2z"/>
		<path id="XMLID_4_" class="st28" d="M495.9,531.2c-10.2-1.7-20.1,7-20.1,7s6.5,11.5,16.7,13.3c10.2,1.7,20.1-7,20.1-7
			S506.1,532.9,495.9,531.2z"/>
		<path id="XMLID_1_" class="st28" d="M502.8,497.3c-0.4,10.2-9.3,18.3-9.3,18.3s-8.3-8.4-8-18.6c0.4-10.2,9.3-18.3,9.3-18.3
			S503.2,487.1,502.8,497.3z"/>
	</g>
	<g>
		<g id="XMLID_20297_">
			<path id="XMLID_20368_" class="st28" d="M512.4,68.7c-15.1,21.4-7.8,52.8-7.8,52.8s31.8-3.2,46.8-24.6
				c15.1-21.4,7.8-52.8,7.8-52.8S527.5,47.3,512.4,68.7z"/>
			<path id="XMLID_20367_" class="st28" d="M505,264.4c5.4,25.5,33.1,41.3,33.1,41.3s19-25.6,13.6-51.1
				c-5.4-25.5-33.1-41.3-33.1-41.3S499.6,238.9,505,264.4z"/>
			<path id="XMLID_20366_" class="st35" d="M502.9,263.2c5.4,25.5,33.1,41.3,33.1,41.3s19-25.6,13.6-51.1
				c-5.4-25.5-33.1-41.3-33.1-41.3S497.5,237.6,502.9,263.2z"/>
			<g id="XMLID_20364_">
				<path id="XMLID_20365_" class="st33" d="M415,416.9l31.1-70.8l29.6-46.7c6.2-9.7,8.4-21.4,6.3-32.7l-10.4-55.3l-20.4-52.6
					l-9.9-36.8l-16.1,4.3l10.3,38.1l20.3,52.3l8.7,46.7c2.1,11.3-0.1,22.9-6.2,32.6l-27.2,43.1l-30.8,64.4L415,416.9z"/>
			</g>
			<path id="XMLID_20363_" class="st28" d="M466.3,264c-21.4,14.9-52.4,7.3-52.4,7.3s3.7-31.7,25.2-46.6
				c21.4-14.9,52.4-7.3,52.4-7.3S487.7,249.2,466.3,264z"/>
			<path id="XMLID_20362_" class="st35" d="M466.3,264c-21.4,14.9-52.4,7.3-52.4,7.3s3.7-31.7,25.2-46.6
				c21.4-14.9,52.4-7.3,52.4-7.3S487.7,249.2,466.3,264z"/>
			<path id="XMLID_20361_" class="st28" d="M340.6,279.3c23.7,10.8,52.9-2.2,52.9-2.2s-9.4-30.5-33.1-41.3
				c-23.7-10.8-52.9,2.2-52.9,2.2S316.9,268.5,340.6,279.3z"/>
			<path id="XMLID_20360_" class="st28" d="M359.1,229.5c3.6,25.8,30.1,43.5,30.1,43.5s20.8-24.2,17.2-50.1
				c-3.6-25.8-30.1-43.5-30.1-43.5S355.5,203.7,359.1,229.5z"/>
			<path id="XMLID_20359_" class="st28" d="M572.3,288.9c-25.9-3.3-49.8,17.8-49.8,17.8s18.4,23.9,43.9,29.6
				c22.3,5,46.7-16.3,49.8-17.8C616.1,318.5,598.2,292.2,572.3,288.9z"/>
			<path id="XMLID_20358_" class="st28" d="M556.8,216.6C540.6,237,546,268.5,546,268.5s31.9-1.6,48.1-22
				c16.3-20.4,10.8-51.8,10.8-51.8S573.1,196.3,556.8,216.6z"/>
			<path id="XMLID_20357_" class="st35" d="M539.8,246.4c-10.6,6.8-17.2,17.6-21.2,27c-4.2,9.9,2.8,21,13.6,21.3
				c10.2,0.3,22.8-1.2,33.4-8c10.6-6.8,17.2-17.6,21.2-27c4.2-9.9-2.8-21-13.6-21.3C563,238.1,550.4,239.6,539.8,246.4z"/>
			<path id="XMLID_20356_" class="st28" d="M560.6,252.6c-23.5,11.3-32.2,42-32.2,42s29.4,12.3,52.9,1c23.5-11.3,32.2-42,32.2-42
				S584.1,241.2,560.6,252.6z"/>
			<path id="XMLID_20355_" class="st28" d="M545.4,165.4c-12.8,22.7-2.4,52.9-2.4,52.9s31.2-6.7,44-29.4
				c12.8-22.7,2.4-52.9,2.4-52.9S558.2,142.7,545.4,165.4z"/>
			<g id="XMLID_20353_">
				<path id="XMLID_20354_" class="st33" d="M396.1,368.9l8.9-76.8l14.6-53.3c3-11.1,1.7-23-3.6-33.1l-26.2-49.8l-35-44.3
					l-20.2-32.2l-14.1,8.9l21,33.4l34.7,44l22.1,42.1c5.3,10.1,6.6,21.9,3.6,33l-13.4,49.2L378,360.5L396.1,368.9z"/>
			</g>
			<path id="XMLID_20352_" class="st28" d="M362,248.8c11,23.6,41.6,32.7,41.6,32.7s12.7-29.3,1.7-52.9
				c-11-23.6-41.6-32.7-41.6-32.7S351,225.1,362,248.8z"/>
			<path id="XMLID_20351_" class="st28" d="M346.6,293c16.8,19.9,48.7,20.7,48.7,20.7s4.6-31.6-12.2-51.5
				c-16.8-19.9-48.7-20.7-48.7-20.7S329.8,273.1,346.6,293z"/>
			<path id="XMLID_20350_" class="st28" d="M255.3,266.5c26.1,0.8,47.9-22.5,47.9-22.5s-20.4-24.5-46.5-25.3
				c-26.1-0.8-47.9,22.5-47.9,22.5S229.2,265.7,255.3,266.5z"/>
			<path id="XMLID_20349_" class="st28" d="M255.5,181.1c10.3,24,40.5,34,40.5,34s13.6-28.8,3.4-52.8c-10.3-24-40.5-34-40.5-34
				S245.2,157.1,255.5,181.1z"/>
			<path id="XMLID_20348_" class="st28" d="M482.5,217.8c-20.3,16.3-21.8,48.2-21.8,48.2s31.4,5.4,51.8-11
				c20.3-16.3,21.8-48.2,21.8-48.2S502.8,201.4,482.5,217.8z"/>
			<path id="XMLID_20347_" class="st28" d="M465.6,175.1c-9.6,24.3,4.9,52.7,4.9,52.7s30-10.9,39.5-35.2c9.6-24.3-4.9-52.7-4.9-52.7
				S475.2,150.8,465.6,175.1z"/>
			<path id="XMLID_20346_" class="st35" d="M466,175.1c-9.6,24.3,4.9,52.7,4.9,52.7s30-10.9,39.5-35.2c9.6-24.3-4.9-52.7-4.9-52.7
				S475.5,150.8,466,175.1z"/>
			<path id="XMLID_20345_" class="st28" d="M431.1,109.9c5.4,25.5,33.2,41.2,33.2,41.2s18.9-25.7,13.5-51.2
				c-5.4-25.5-33.2-41.2-33.2-41.2S425.6,84.4,431.1,109.9z"/>
			<path id="XMLID_20344_" class="st28" d="M474.6,112c7.8,24.9,36.9,38,36.9,38s16.5-27.3,8.8-52.2c-7.8-24.9-36.9-38-36.9-38
				S466.9,87.1,474.6,112z"/>
			<path id="XMLID_20343_" class="st28" d="M372.2,115.1c-7.5,25,9.2,52.1,9.2,52.1s29-13.3,36.5-38.3c7.5-25-9.2-52.1-9.2-52.1
				S379.7,90.1,372.2,115.1z"/>
			<path id="XMLID_20342_" class="st28" d="M407,136.9c-18.2,18.7-15.8,50.5-15.8,50.5s31.9,1.5,50-17.2
				c18.2-18.7,15.8-50.5,15.8-50.5S425.2,118.2,407,136.9z"/>
			<path id="XMLID_20341_" class="st28" d="M343.4,60.3c-11.5,23.4,0.7,52.9,0.7,52.9s30.8-8.5,42.2-31.9
				c11.5-23.4-0.7-52.9-0.7-52.9S354.9,36.8,343.4,60.3z"/>
			<path id="XMLID_20340_" class="st28" d="M296.2,53.8c9.1,24.4,38.9,35.9,38.9,35.9s15-28.2,5.9-52.6S302.1,1.3,302.1,1.3
				S287.1,29.4,296.2,53.8z"/>
			<g id="XMLID_20338_">
				<path id="XMLID_20339_" class="st33" d="M417.3,424.7l-42.7-76.1L337.1,308c-7.8-8.5-12.1-19.6-12-31.1l0.3-56.3l10.6-55.4
					l-0.5,3l16.6,1.4l0.3-1.7L341.9,223l-0.2,47.5c0,11.5,4.2,22.5,12,30.9l34.5,37.5l41.9,57.9L417.3,424.7z"/>
			</g>
			<path id="XMLID_20337_" class="st28" d="M392.7,290.3c1.1,26.1-21.8,48.2-21.8,48.2s-24.8-20.1-25.9-46.2
				c-1.1-26.1,21.8-48.2,21.8-48.2S391.6,264.2,392.7,290.3z"/>
			<path id="XMLID_20336_" class="st28" d="M355.3,323.7c22.4,13.3,28.4,44.7,28.4,44.7s-30.4,9.7-52.8-3.6
				c-22.4-13.3-28.4-44.7-28.4-44.7S332.9,310.4,355.3,323.7z"/>
			<path id="XMLID_20335_" class="st28" d="M429,199.5c11.5,23.4-0.5,52.9-0.5,52.9s-30.8-8.4-42.3-31.8
				c-11.5-23.4,0.5-52.9,0.5-52.9S417.5,176.1,429,199.5z"/>
			<path id="XMLID_20334_" class="st28" d="M248.8,308.8c22.2-13.7,52.7-4.5,52.7-4.5s-5.5,31.4-27.7,45.1
				c-22.2,13.7-52.7,4.5-52.7,4.5S226.6,322.5,248.8,308.8z"/>
			<path id="XMLID_20302_" class="st28" d="M359,389.5c22.2-13.7,52.7-4.5,52.7-4.5s-5.5,31.4-27.7,45.1
				c-22.2,13.7-52.7,4.5-52.7,4.5S336.8,403.2,359,389.5z"/>
			<path id="XMLID_20333_" class="st28" d="M316.1,280.3c10.8,23.7-2.1,52.9-2.1,52.9s-30.5-9.3-41.4-33
				c-10.8-23.7,2.1-52.9,2.1-52.9S305.3,256.6,316.1,280.3z"/>
			<path id="XMLID_20332_" class="st28" d="M254.9,267.2c25.8,4,42.9,30.8,42.9,30.8s-24.6,20.3-50.4,16.3s-42.9-30.8-42.9-30.8
				S229.1,263.2,254.9,267.2z"/>
			<path id="XMLID_20331_" class="st28" d="M254.1,173.5c19.9,16.7,20.7,48.5,20.7,48.5s-31.6,4.7-51.5-12.1
				c-19.9-16.7-20.7-48.5-20.7-48.5S234.1,156.7,254.1,173.5z"/>
			<path id="XMLID_20330_" class="st28" d="M334.6,182.3c6.7,25.2-11.1,51.8-11.1,51.8s-28.5-14.4-35.1-39.6
				c-6.7-25.2,11.1-51.8,11.1-51.8S328,157.1,334.6,182.3z"/>
			<path id="XMLID_20329_" class="st35" d="M294.5,221.7c24.7,8.2,37.3,37.6,37.3,37.6s-9.5-10.8-18.4-7.9
				c-10.2,3.3-20.7,20.1-33.9,15.7c-24.7-8.2-37.3-37.6-37.3-37.6S269.7,213.5,294.5,221.7z"/>
			<path id="XMLID_20328_" class="st28" d="M301.3,211.8c24.7,8.2,37.3,37.6,37.3,37.6s-27.6,16-52.4,7.8
				c-24.7-8.2-37.3-37.6-37.3-37.6S276.5,203.6,301.3,211.8z"/>
			<path id="XMLID_20327_" class="st28" d="M335.6,126.2c26,1.5,45.8,26.6,45.8,26.6s-22.5,22.6-48.5,21.1
				c-26-1.5-45.8-26.6-45.8-26.6S309.6,124.7,335.6,126.2z"/>
			<path id="XMLID_20326_" class="st28" d="M312,78.2c24.8,8,37.6,37.3,37.6,37.3s-27.5,16.2-52.3,8.2c-24.8-8-37.6-37.3-37.6-37.3
				S287.2,70.2,312,78.2z"/>
			<path id="XMLID_20325_" class="st28" d="M521,124.3c-13.2,22.5-3.2,52.8-3.2,52.8s31.3-6.2,44.5-28.7
				c13.2-22.5,3.2-52.8,3.2-52.8S534.2,101.8,521,124.3z"/>
			<path id="XMLID_20324_" class="st28" d="M447.7,169.8c-23.9,10.3-33.9,40.7-33.9,40.7s28.9,13.6,52.8,3.2
				c23.9-10.3,33.9-40.7,33.9-40.7S471.7,159.5,447.7,169.8z"/>
			<path id="XMLID_20323_" class="st28" d="M509.2,180.4c-15.6,20.9-9,52.1-9,52.1s31.8-2.7,47.4-23.6c15.6-20.9,9-52.1,9-52.1
				S524.8,159.5,509.2,180.4z"/>
			<g id="XMLID_20321_">
				<path id="XMLID_20322_" class="st1" d="M434,321.1l8.8,10.4l3.3,296.3H434h-19.1l3.2-252.4c0,0-2.7-84.1-0.5-73.5l11.7,13.7"/>
			</g>
			<polyline id="XMLID_20320_" class="st1" points="439.2,418 491.4,338.5 536.7,268.8 551.1,280.3 441.4,443.8 			"/>
			<g id="XMLID_20316_">
				<path id="XMLID_20317_" class="st1" d="M421,445.1l-57.2-91c-5-10.4-5.8-22.3-2.4-33.3l16.9-53.7l26.4-49.8l28.5-77.6l15.5,6.2
					l-29.1,78.8l-26.3,49.5l-14.1,45.4c-3.4,10.9-2.6,22.8,2.4,33.1l41.2,59.6"/>
			</g>
			<path id="XMLID_20313_" class="st28" d="M481,276.4c-21.9,14.2-52.6,5.7-52.6,5.7s4.7-31.6,26.6-45.8
				c21.9-14.2,52.6-5.7,52.6-5.7S502.9,262.2,481,276.4z"/>
			<path id="XMLID_20312_" class="st28" d="M302.4,295.6c26-1.8,49.8,18,49.8,18s-18.1,26.3-44,29.4c-25.9,3.2-49.8-18-49.8-18
				C261.2,322.1,277.9,297.3,302.4,295.6z"/>
			<path id="XMLID_20310_" class="st28" d="M315,335.3c21.4-14.9,52.4-7.4,52.4-7.4s-3.7,31.6-25.1,46.5
				c-21.4,14.9-52.4,7.4-52.4,7.4S293.6,350.2,315,335.3z"/>
			<path id="XMLID_20309_" class="st28" d="M338.9,276.9c24.5,8.9,36.2,38.6,36.2,38.6s-28,15.2-52.5,6.3
				c-24.5-8.9-36.2-38.6-36.2-38.6S314.4,268,338.9,276.9z"/>
			<path id="XMLID_20304_" class="st35" d="M352.2,154.6c24.6,8.6,36.7,38.2,36.7,38.2s-27.9,15.5-52.5,6.9s-36.7-38.2-36.7-38.2
				S327.6,146,352.2,154.6z"/>
			<path id="XMLID_20300_" class="st28" d="M435.9,244.3c-0.6,26.1-24.9,46.8-24.9,46.8s-23.4-21.7-22.9-47.8
				c0.6-26.1,24.9-46.8,24.9-46.8S436.4,218.2,435.9,244.3z"/>
			<path id="XMLID_20299_" class="st35" d="M473.4,138.1c-20.1,16.7-51.6,11.8-51.6,11.8s1-31.9,21.1-48.6
				c20.1-16.7,51.6-11.8,51.6-11.8S493.5,121.4,473.4,138.1z"/>
			<path id="XMLID_20298_" class="st28" d="M474.2,155.6c-19.9,16.8-51.5,12.2-51.5,12.2s0.8-31.9,20.7-48.7
				c19.9-16.8,51.5-12.2,51.5-12.2S494.1,138.8,474.2,155.6z"/>
		</g>
		<path id="XMLID_20287_" class="st29" d="M464.9,628.8v-10.9l0,0c0-21.1-17.1-38.2-38.2-38.2l-23.6,0c-21.1,0-38.2,17.1-38.2,38.2
			l0,0v29.2"/>
		<path id="XMLID_20286_" class="st29" d="M401,646.8L401,646.8l-68,0l0,0c0-16.9,13.7-47.6,30.6-47.6l6.8,0c4.2,0,8.2,0.9,11.9,2.4
			"/>
		<path id="XMLID_20285_" class="st29" d="M405.4,600.6c8-9.1,19.7-14.8,32.8-14.8l12.9,0c24.1,0,43.7,36.6,43.7,60.8v0l-100.3,0
			l0,0"/>
		<path id="XMLID_20284_" class="st29" d="M464.6,609c5.9-7,14.8-11.5,24.7-11.5l7.2,0c17.8,0,32.3,31.5,32.3,49.3v0l-71.7,0l0,0"/>
		<path id="XMLID_20314_" class="st28" d="M556.8,319.5C574,339,570,370.6,570,370.6s-31.9,0-49.1-19.5
			c-17.2-19.5-13.2-51.2-13.2-51.2S539.6,300,556.8,319.5z"/>
		<g>
			<g>
				<g>
					<g>
						<g>
							<path class="st36" d="M376.8,178.2c-1.8,0.2-3.5,0.3-5.1,0.3c-6,0-11.4-1.4-16-4.1c-6.4-3.8-10.8-9.9-13-18.1
								c-1.1-4.3-1.5-8.4-1-12c0.5-3.6,1.6-7.1,3.4-10.2c1.7-3.1,4.1-6.1,7.1-8.9c2.9-2.8,7-6,12.3-9.7c4.9-3.4,8.2-6.6,9.8-9.3
								c1.5-2.5,1.8-5.3,0.9-8.6c-1-3.8-2.7-6.3-5.2-7.7c-1.5-0.8-3.1-1.2-5-1.2c-1.3,0-2.8,0.2-4.3,0.6c-3.7,1-6.1,3-7.5,6.3
								c-1.5,3.4-1.5,7.8-0.2,12.9l0.6,2.3l-20.8,5.5l-0.6-2.3c-2.5-9.3-2.2-17.6,0.8-24.7c2.8-6.6,7.8-11.7,14.9-15.2l-4-15.2
								L359,55l4,15c1.3-0.1,2.7-0.2,3.9-0.2c6.1,0,11.6,1.5,16.3,4.5c6.3,3.9,10.6,10,12.7,18c3.1,11.9-0.1,22.5-9.8,31.5
								c-2.8,2.6-6.8,5.7-12,9.3c-4.8,3.3-8.1,6.4-9.7,9.2c-1.5,2.6-1.8,5.5-0.9,8.7c0.9,3.5,2.7,5.9,5.5,7.3
								c1.5,0.8,3.4,1.2,5.4,1.2h0c1.7,0,3.6-0.3,5.6-0.8c4.6-1.2,7.7-3.4,9.4-6.7c1.7-3.3,2-7.6,0.6-12.6l-0.6-2.3l20.9-5.5
								l0.6,2.3c2.5,9.4,1.9,17.9-1.7,25c-3.4,6.7-9.2,11.8-17.3,15.4l3.5,13.4l-15.2,4L376.8,178.2z"/>
						</g>
						<g>
							<path class="st21" d="M357.4,57.8l3.9,14.7c2-0.3,3.8-0.4,5.7-0.4c5.7,0,10.7,1.4,15.1,4.1c5.8,3.6,9.7,9.2,11.7,16.6
								c2.9,11-0.1,20.8-9.1,29.2c-2.7,2.5-6.6,5.6-11.8,9.1c-5.1,3.5-8.6,6.8-10.4,10c-1.8,3.1-2.1,6.6-1.1,10.5
								c1.1,4.1,3.3,7,6.6,8.8c1.9,1,4.1,1.5,6.5,1.5c1.9,0,4-0.3,6.2-0.9c5.2-1.4,8.9-4,10.9-7.9c2-3.9,2.3-8.6,0.8-14.3l16.4-4.3
								c2.4,8.9,1.9,16.7-1.5,23.4c-3.4,6.7-9.4,11.7-18,15l3.5,13.1l-10.7,2.8l-3.5-13.2c-2.4,0.4-4.7,0.6-6.8,0.6
								c-5.6,0-10.6-1.3-14.9-3.8c-5.9-3.5-9.9-9-11.9-16.7c-1.1-4.1-1.4-7.7-1-11.1c0.4-3.3,1.4-6.5,3.1-9.4
								c1.6-2.9,3.9-5.7,6.7-8.4c2.8-2.7,6.8-5.8,12-9.5c5.2-3.6,8.7-7,10.5-10c1.8-3,2.2-6.5,1.1-10.4c-1.2-4.4-3.3-7.4-6.3-9.1
								c-1.8-1-3.9-1.5-6.1-1.5c-1.5,0-3.2,0.2-4.9,0.7c-4.4,1.2-7.4,3.7-9.1,7.6c-1.7,3.9-1.8,8.7-0.3,14.4l-16.3,4.3
								c-2.3-8.8-2.1-16.6,0.7-23.2c2.8-6.7,8-11.6,15.5-14.8l-3.9-14.9L357.4,57.8 M360.7,52.1l-4.5,1.2l-10.8,2.9l-4.5,1.2
								l1.2,4.5l3,11.1c-6.7,3.7-11.5,8.9-14.3,15.5c-3.2,7.6-3.5,16.4-0.9,26.2l1.2,4.5l4.5-1.2l16.3-4.3l4.5-1.2l-1.2-4.5
								c-1.2-4.6-1.2-8.5,0.1-11.4c1.1-2.6,3-4.2,6-5c1.3-0.4,2.6-0.5,3.7-0.5c1.5,0,2.8,0.3,3.9,0.9c1.9,1.1,3.3,3.1,4.1,6.2
								c0.7,2.7,0.5,4.9-0.6,6.8c-1,1.7-3.4,4.5-9.1,8.5c-5.4,3.8-9.5,7.1-12.6,9.9c-3.1,3-5.7,6.2-7.5,9.5
								c-1.9,3.4-3.2,7.2-3.6,11.1c-0.5,3.9-0.1,8.2,1.1,12.9c2.3,8.8,7.1,15.4,14,19.5c5,2.9,10.8,4.4,17.2,4.4
								c1.1,0,2.2,0,3.4-0.1l2.5,9.3l1.2,4.5l4.5-1.2l10.7-2.8l4.5-1.2l-1.2-4.5l-2.4-9.2c7.7-3.7,13.3-9,16.7-15.6
								c3.9-7.7,4.5-16.7,1.8-26.7l-1.2-4.5l-4.5,1.2l-16.4,4.3l-4.5,1.2l1.2,4.5c1.2,4.5,1,8.2-0.4,10.9c-1.4,2.7-4,4.5-8,5.5
								c-1.8,0.5-3.5,0.7-5,0.7c-1.7,0-3.1-0.3-4.3-1c-2.2-1.2-3.6-3-4.3-5.9c-0.7-2.7-0.5-4.9,0.7-7c1-1.7,3.3-4.6,8.9-8.4
								c5.4-3.7,9.4-6.8,12.3-9.5c10.3-9.6,13.8-21,10.4-33.7c-2.3-8.6-6.9-15.2-13.8-19.4c-5.1-3.2-11-4.8-17.6-4.8
								c-0.7,0-1.4,0-2.2,0.1l-2.9-10.9L360.7,52.1L360.7,52.1z"/>
						</g>
					</g>
				</g>
			</g>
		</g>
		<path id="XMLID_20434_" class="st28" d="M460.9,322.5c19.6,17.2,51.3,13.1,51.3,13.1s-0.2-31.9-19.8-49.1
			c-19.6-17.2-51.3-13.1-51.3-13.1S441.3,305.3,460.9,322.5z"/>
		<g>
			<g>
				<g>
					<g>
						<g>
							<path class="st36" d="M306.7,266.1c-4.2,1.9-8.2,2.8-12.1,2.8c-1.7,0-3.4-0.2-5-0.5c-6-1.3-11-4.9-14.7-10.8
								c-2-3.1-3.3-6.1-3.9-9.1c-0.6-2.9-0.6-5.9,0-8.9c0.6-2.9,1.7-5.8,3.2-8.7c1.5-2.8,3.9-6.4,7-10.6c2.9-3.8,4.6-7,5.1-9.4
								c0.5-2.1,0-4.2-1.4-6.4c-1.6-2.5-3.5-3.9-5.6-4.4c-0.4-0.1-0.9-0.1-1.3-0.1c-1.8,0-3.6,0.7-5.6,1.9c-2.4,1.6-3.7,3.7-4,6.4
								c-0.2,2.9,0.8,6.1,3.1,9.6l1.3,2l-15.3,10l-1.3-2c-4.3-6.6-6.2-13.1-5.7-19.4c0.5-5.8,3-11,7.5-15.4l-7-10.7l11.5-7.5
								l6.9,10.6c3.7-1.6,7.4-2.4,10.9-2.4c1.9,0,3.8,0.2,5.6,0.7c5.9,1.4,10.8,5.1,14.6,10.8c5.5,8.4,5.6,17.5,0.5,27
								c-1.5,2.8-3.8,6.1-6.9,10.2c-2.8,3.7-4.5,6.8-5,9.3c-0.4,2.2,0,4.4,1.4,6.6c1.5,2.3,3.4,3.6,5.7,4c0.4,0.1,0.8,0.1,1.3,0.1
								c2.1,0,4.4-0.8,7-2.5c3.1-2,4.8-4.4,5.3-7.2c0.5-2.9-0.4-6.1-2.6-9.5l-1.3-2l15.4-10l1.3,2c4.4,6.7,6.1,13.4,5.1,19.9
								c-0.9,5.9-4,11.4-9.3,16.1l6.1,9.4l-11.4,7.4L306.7,266.1z"/>
						</g>
						<g>
							<path class="st21" d="M261.7,178.3l6.7,10.3c4-2,8-3,11.8-3c1.7,0,3.4,0.2,5,0.6c5.4,1.3,9.7,4.6,13.1,9.8
								c5,7.7,5.1,15.9,0.4,24.6c-1.4,2.6-3.7,5.9-6.7,9.9c-3.1,4-4.9,7.4-5.4,10.2c-0.6,2.9,0,5.6,1.8,8.3c1.9,2.9,4.3,4.6,7.3,5.1
								c0.5,0.1,1.1,0.1,1.6,0.1c2.5,0,5.3-1,8.2-2.9c3.6-2.4,5.8-5.3,6.4-8.8c0.6-3.5-0.4-7.2-3-11.1l11.5-7.5
								c4.1,6.2,5.6,12.3,4.7,18.3c-0.9,6-4.2,11.3-10,16l6,9.2l-7.5,4.9l-6-9.2c-4.5,2.3-8.8,3.5-12.9,3.5c-1.5,0-3-0.2-4.5-0.5
								c-5.4-1.2-9.8-4.4-13.3-9.7c-1.8-2.8-3-5.6-3.5-8.2c-0.5-2.7-0.5-5.3,0-8c0.5-2.6,1.5-5.3,3-8.1c1.5-2.8,3.8-6.2,6.8-10.3
								c3.1-4.1,4.9-7.5,5.5-10.3c0.6-2.7,0-5.5-1.8-8.2c-2-3.1-4.4-4.8-7.1-5.4c-0.6-0.1-1.2-0.2-1.8-0.2c-2.2,0-4.5,0.8-6.9,2.3
								c-3.1,2-4.7,4.7-5,8.1c-0.3,3.4,0.8,7.1,3.4,11.1l-11.4,7.4c-4-6.2-5.8-12.1-5.3-17.9c0.5-5.8,3.2-10.9,8.2-15.2l-6.8-10.4
								L261.7,178.3 M263.1,171.9l-3.9,2.5l-7.6,4.9l-3.9,2.5l2.5,3.9l4.7,7.2c-4.1,4.5-6.4,9.7-6.8,15.5c-0.6,6.8,1.5,13.8,6,20.9
								l2.5,3.9l3.9-2.5l11.4-7.4l3.9-2.5l-2.5-3.9c-2-3-2.9-5.8-2.7-8.2c0.2-2,1.1-3.4,2.9-4.6c1.6-1,3.1-1.6,4.4-1.6
								c0.3,0,0.6,0,0.9,0.1c0.5,0.1,2.2,0.4,4.1,3.3c1.4,2.2,1.3,3.7,1.1,4.7c-0.3,1.4-1.4,4.1-4.7,8.5c-3.2,4.3-5.6,7.9-7.2,10.9
								c-1.7,3.2-2.9,6.3-3.5,9.4c-0.6,3.2-0.6,6.5,0,9.8c0.6,3.2,2.1,6.6,4.2,9.9c4.1,6.4,9.6,10.3,16.2,11.8
								c1.8,0.4,3.6,0.6,5.5,0.6c3.6,0,7.4-0.8,11.2-2.3l3.8,5.9l2.5,3.9l3.9-2.5l7.5-4.9l3.9-2.5l-2.5-3.9l-3.8-5.8
								c4.8-4.8,7.7-10.2,8.5-16.1c1.1-7.1-0.8-14.3-5.4-21.5l-2.5-3.9l-3.9,2.5l-11.5,7.5l-3.9,2.5l2.5,3.9
								c1.9,2.9,2.7,5.6,2.3,7.8c-0.4,2.1-1.8,4-4.3,5.6c-2.2,1.4-4.1,2.1-5.7,2.1c-0.3,0-0.6,0-0.9-0.1c-1.1-0.2-2.7-0.7-4.2-3
								c-1.1-1.7-1.4-3.2-1.1-4.9c0.3-1.5,1.3-4.1,4.6-8.3c3.2-4.2,5.6-7.7,7.1-10.5c5.5-10.1,5.4-20.3-0.6-29.4
								c-4.1-6.2-9.4-10.2-16-11.8c-2-0.5-4.1-0.7-6.1-0.7c-3.3,0-6.6,0.6-10,1.9l-4.6-7L263.1,171.9L263.1,171.9z"/>
						</g>
					</g>
				</g>
			</g>
		</g>
		<g>
			<g>
				<g>
					<g>
						<g>
							<path class="st36" d="M492.9,172.2l3.9-10.5c-5.7-3.2-9.7-7.3-11.9-12.2c-2.5-5.5-2.6-11.6-0.2-18.1c1.3-3.4,2.9-6.2,4.9-8.5
								c2-2.2,4.4-4,7-5.3c2.6-1.2,5.6-2.1,8.9-2.6c3.1-0.5,7.3-0.7,12.3-0.7h0.3c4.7,0,8.2-0.5,10.4-1.5c2-0.9,3.4-2.5,4.3-4.9
								c1-2.8,1.1-5.1,0.1-7c-1-2-2.8-3.4-5.6-4.4c-1.1-0.4-2.2-0.6-3.2-0.6c-1.5,0-2.8,0.4-4.2,1.2c-2.4,1.5-4.4,4.2-5.8,8.1
								l-0.8,2.2l-17-6.3l0.8-2.2c2.7-7.3,6.8-12.7,12.1-16c3.7-2.3,7.9-3.5,12.4-3.5c1.4,0,2.8,0.1,4.2,0.3l4.4-11.9l12.7,4.7
								l-4.3,11.7c5.3,3.1,9,7.1,11.1,12.1c2.4,5.6,2.4,11.6,0.1,18c-3.5,9.4-10.6,14.9-21.2,16.4c-2.6,0.4-6,0.6-10.1,0.6
								c-0.7,0-2.8,0-2.8,0c-4.2,0-7.5,0.5-9.6,1.5c-2,1-3.5,2.6-4.3,5c-0.9,2.6-0.9,4.8,0.2,6.9c1.1,2.1,3.4,3.8,6.7,5.1
								c1.7,0.6,3.3,0.9,4.7,0.9c1.5,0,2.8-0.3,4.1-1c2.6-1.3,4.6-3.9,6-7.7l0.8-2.2l17.1,6.3l-0.8,2.2c-2.7,7.4-7,12.8-12.8,15.8
								c-3.6,1.9-7.5,2.9-11.9,2.9c-2.1,0-4.2-0.2-6.4-0.7l-3.8,10.4L492.9,172.2z"/>
						</g>
						<g>
							<path class="st21" d="M531.5,70.9l8.4,3.1l-4.2,11.4c5.8,2.9,9.7,6.9,11.9,11.9c2.1,5,2.2,10.4,0,16.2
								c-3.1,8.5-9.6,13.5-19.3,14.9c-2.5,0.4-5.8,0.5-9.8,0.5c-0.7,0-1.3,0-2,0c-0.3,0-0.5,0-0.7,0c-4.6,0-8.1,0.6-10.6,1.8
								c-2.6,1.2-4.4,3.4-5.5,6.3c-1.2,3.2-1.1,6.1,0.3,8.8c1.4,2.7,4,4.8,8,6.2c2,0.7,3.8,1.1,5.5,1.1c1.9,0,3.6-0.4,5.2-1.2
								c3.1-1.6,5.5-4.6,7.1-9l12.7,4.7c-2.5,6.9-6.4,11.8-11.7,14.6c-3.2,1.7-6.8,2.6-10.8,2.6c-2.5,0-5.1-0.3-7.9-1l-3.7,10.2
								l-8.3-3.1l3.8-10.2c-6.2-3-10.4-7.1-12.7-12.1c-2.3-5-2.3-10.4-0.1-16.3c1.2-3.1,2.6-5.7,4.4-7.7c1.8-2,3.9-3.6,6.3-4.7
								c2.4-1.2,5.1-2,8.2-2.4c3-0.4,7-0.7,12-0.7c0.1,0,0.1,0,0.2,0c0,0,0.1,0,0.1,0c5,0,8.8-0.6,11.3-1.7c2.5-1.1,4.4-3.2,5.5-6.3
								c1.2-3.4,1.3-6.3,0-8.8c-1.2-2.5-3.5-4.4-6.8-5.6c-1.4-0.5-2.7-0.8-4-0.8c-1.9,0-3.7,0.5-5.4,1.6c-2.9,1.8-5.2,4.9-6.8,9.3
								l-12.7-4.7c2.5-6.8,6.2-11.8,11.1-14.8c3.4-2.1,7.1-3.2,11.2-3.2c1.8,0,3.7,0.2,5.7,0.6L531.5,70.9 M528.8,64.9l-1.6,4.4
								l-2.9,8c-0.9-0.1-1.8-0.1-2.7-0.1c-5,0-9.6,1.3-13.7,3.9c-5.8,3.6-10.1,9.4-13,17.2l-1.6,4.4l4.4,1.6l12.7,4.7l4.4,1.6
								l1.6-4.4c1.2-3.4,2.9-5.7,4.9-7c1-0.6,1.9-0.9,2.9-0.9c0.7,0,1.6,0.2,2.4,0.5c2.2,0.8,3.6,1.9,4.3,3.3c0.2,0.5,1,2-0.2,5.2
								c-0.9,2.4-2.2,3.2-3,3.6c-1.3,0.6-4,1.3-9.4,1.3h-0.3c-5.2,0-9.4,0.2-12.7,0.7c-3.5,0.5-6.7,1.5-9.5,2.8
								c-2.9,1.4-5.5,3.4-7.8,5.8c-2.2,2.4-4,5.5-5.4,9.2c-2.6,7.1-2.5,13.8,0.3,19.9c2.2,4.9,6,9,11.2,12.3l-2.4,6.5l-1.6,4.4
								l4.4,1.6l8.3,3.1l4.4,1.6l1.6-4.4l2.4-6.4c1.7,0.2,3.3,0.4,4.9,0.4c4.7,0,9.1-1.1,13-3.1c6.3-3.4,10.9-9.1,13.9-17.1l1.6-4.4
								l-4.4-1.6l-12.7-4.7l-4.4-1.6l-1.6,4.4c-1.2,3.2-2.8,5.4-4.8,6.4c-0.9,0.5-1.9,0.7-3.1,0.7c-1.2,0-2.5-0.3-3.9-0.8
								c-2.8-1-4.7-2.4-5.5-4c-0.5-0.9-1-2.5-0.1-5.1c0.7-1.8,1.7-3,3.2-3.7c1.2-0.6,3.8-1.3,8.6-1.3l0.7,0c0.7,0,1.4,0,2.1,0
								c4.3,0,7.7-0.2,10.5-0.6c11.3-1.6,19.3-7.8,23-17.9c2.5-6.9,2.5-13.5-0.1-19.7c-2.1-4.9-5.6-9-10.4-12.2l2.8-7.7l1.6-4.4
								l-4.4-1.6l-8.4-3.1L528.8,64.9L528.8,64.9z"/>
						</g>
					</g>
				</g>
			</g>
		</g>
		<g>
			<g>
				<g>
					<g>
						<g>
							<path class="st36" d="M425.8,293.1l1.8-10.8c-6-2-10.6-5.2-13.7-9.6c-3.4-4.9-4.6-10.8-3.5-17.4c0.6-3.5,1.7-6.6,3.2-9.1
								c1.5-2.5,3.5-4.6,5.8-6.4c2.3-1.7,5-3.1,8.1-4.1c3-1,6.9-2,12-3c4.5-0.9,7.8-2,9.8-3.4c1.7-1.2,2.8-3,3.2-5.5
								c0.5-2.9,0.1-5.1-1.1-6.8c-1.3-1.7-3.3-2.8-6.1-3.2c-0.6-0.1-1.2-0.1-1.7-0.1c-2,0-3.7,0.7-5.3,2.1c-2.1,1.9-3.5,4.9-4.1,8.9
								l-0.4,2.3l-17.6-3l0.4-2.3c1.3-7.5,4.2-13.5,8.7-17.6c4.1-3.8,9.3-5.9,15.4-6.1l2-12.2l13.2,2.2l-2,12.1
								c5.6,2,10,5.2,12.9,9.6c3.3,4.9,4.4,10.8,3.3,17.3c-1.6,9.7-7.5,16.3-17.5,19.7c-2.9,1-6.7,1.9-11.7,2.8
								c-4.4,0.8-7.7,1.9-9.6,3.4c-1.8,1.3-2.8,3.1-3.3,5.6c-0.4,2.6,0,4.8,1.4,6.6c1.4,1.8,3.9,3.1,7.4,3.7
								c0.9,0.2,1.8,0.2,2.6,0.2c2.3,0,4.3-0.6,5.9-1.9c2.2-1.7,3.7-4.6,4.3-8.5l0.4-2.3l17.7,3l-0.4,2.3
								c-1.3,7.7-4.5,13.6-9.4,17.6c-4.5,3.6-10.3,5.5-17.1,5.5c0,0-0.1,0-0.1,0l-1.8,10.8L425.8,293.1z"/>
						</g>
						<g>
							<path class="st21" d="M444.5,188.5l8.6,1.4l-2,11.8c6.1,1.8,10.6,4.9,13.6,9.3c3,4.5,4,9.7,3,15.6
								c-1.5,8.8-6.8,14.8-15.9,17.8c-2.7,0.9-6.5,1.8-11.3,2.7c-4.8,0.8-8.3,2.1-10.6,3.8c-2.3,1.7-3.7,4-4.2,7.1
								c-0.6,3.3,0.1,6.1,1.9,8.4c1.8,2.3,4.8,3.8,8.9,4.5c1,0.2,2,0.3,3,0.3c2.9,0,5.3-0.8,7.3-2.4c2.7-2.1,4.4-5.4,5.2-9.9
								l13.1,2.2c-1.2,7.1-4.1,12.5-8.6,16.2c-4.1,3.3-9.3,5-15.6,5c-0.7,0-1.4,0-2.1-0.1l-1.8,10.5l-8.6-1.4l1.8-10.5
								c-6.5-1.8-11.4-4.9-14.4-9.3c-3.1-4.4-4.1-9.6-3.1-15.7c0.5-3.2,1.5-6,2.9-8.2c1.4-2.2,3.1-4.1,5.2-5.7
								c2.1-1.6,4.6-2.8,7.5-3.8c2.9-1,6.7-2,11.6-2.9c4.9-0.9,8.4-2.2,10.7-3.7c2.2-1.6,3.6-3.9,4.1-7c0.6-3.5,0.1-6.3-1.6-8.5
								c-1.6-2.2-4.2-3.6-7.6-4.2c-0.7-0.1-1.4-0.2-2.1-0.2c-2.6,0-4.9,0.9-6.9,2.7c-2.5,2.3-4.1,5.7-4.8,10.2l-13-2.2
								c1.2-7,3.8-12.5,8-16.3c4-3.7,9-5.5,15.1-5.5c0.2,0,0.5,0,0.7,0L444.5,188.5 M440.7,183.1l-0.8,4.6l-1.4,8.1
								c-5.9,0.6-10.9,2.8-15,6.6c-4.9,4.5-8.1,10.9-9.4,19l-0.8,4.6l4.6,0.8l13,2.2l4.6,0.8l0.8-4.6c0.6-3.5,1.7-6,3.4-7.5
								c1.1-1,2.3-1.5,3.7-1.5c0.4,0,0.9,0,1.3,0.1c2.2,0.4,3.8,1.1,4.6,2.3c0.3,0.4,1.3,1.7,0.7,5c-0.4,2.5-1.5,3.5-2.2,4
								c-1.2,0.8-3.6,2-8.9,3c-5.2,1-9.2,2-12.3,3.1c-3.3,1.2-6.2,2.7-8.7,4.5c-2.6,1.9-4.8,4.3-6.4,7c-1.7,2.8-2.9,6.1-3.5,9.9
								c-1.2,7.3,0.1,13.7,3.9,19.2c3,4.3,7.4,7.6,13,9.8l-1.1,6.6l-0.8,4.6l4.6,0.8l8.6,1.4l4.6,0.8l0.8-4.6l1.1-6.6
								c6.6-0.3,12.2-2.3,16.7-6c5.4-4.4,8.9-10.8,10.3-19l0.8-4.6l-4.6-0.8l-13.1-2.2l-4.6-0.8l-0.8,4.6c-0.6,3.3-1.7,5.7-3.5,7
								c-1.2,0.9-2.7,1.4-4.5,1.4c-0.7,0-1.4-0.1-2.2-0.2c-2.9-0.5-4.9-1.4-5.9-2.8c-0.6-0.8-1.4-2.2-1-4.8c0.3-1.9,1.1-3.2,2.3-4.1
								c1.1-0.8,3.6-2,8.7-2.9c5.1-0.9,9-1.8,12-2.9c10.7-3.6,17.2-11,19-21.5c1.2-7.2,0-13.5-3.7-19c-2.9-4.3-7-7.6-12.3-9.8
								l1.3-7.9l0.8-4.6l-4.6-0.8l-8.6-1.4L440.7,183.1L440.7,183.1z"/>
						</g>
					</g>
				</g>
			</g>
		</g>
		<path id="XMLID_20301_" class="st28" d="M390.5,257.1c7.2,25.1-10,52-10,52s-28.8-13.7-36-38.8c-7.2-25.1,10-52,10-52
			S383.3,232,390.5,257.1z"/>
		<g>
			<g>
				<g>
					<g>
						<g>
							<path class="st36" d="M526.3,287.8l6.2-10.9c-5.8-4.6-9.5-9.9-11.1-15.8c-1.7-6.6-0.7-13.3,3.1-20c2-3.5,4.4-6.4,7-8.4
								c2.6-2.1,5.5-3.6,8.7-4.5c2.9-0.8,6.1-1.3,9.5-1.3l0.8,0c3.6,0.1,8.3,0.6,14.1,1.6c2.9,0.5,5.5,0.7,7.7,0.7
								c1.7,0,3.2-0.2,4.4-0.5c2.4-0.6,4.4-2.2,5.9-4.9c1.7-3,2.2-5.6,1.5-8c-0.7-2.4-2.5-4.5-5.5-6.2c-1.7-1-3.3-1.5-5-1.5
								c-1.2,0-2.4,0.3-3.6,0.8c-3.1,1.3-5.8,4-8.2,8.1l-1.2,2l-17.3-9.9l1.2-2c4.3-7.6,9.8-12.8,16.3-15.4c3.1-1.3,6.4-2,9.8-2
								c3,0,6.2,0.5,9.4,1.6l7.1-12.4l12.8,7.3l-7,12.2c5.4,4.4,8.8,9.6,10.3,15.6c1.6,6.6,0.5,13.2-3.3,19.8
								c-5.4,9.4-13.9,14.1-25.3,14.1c-0.4,0-0.8,0-1.1,0c-3.4-0.1-8-0.6-13.7-1.7c-2.8-0.5-5.2-0.8-7.3-0.8c-1.8,0-3.3,0.2-4.6,0.5
								c-2.5,0.7-4.5,2.3-6,4.9c-1.6,2.8-1.9,5.4-1.1,8c0.8,2.7,3.1,5,6.7,7.1c2.5,1.4,4.8,2.1,7,2.1l0,0c1,0,2.1-0.2,3.1-0.5
								c3.2-1,5.9-3.6,8.3-7.6l1.2-2l17.3,9.9l-1.2,2c-4.4,7.7-10.1,12.8-17.1,15.1c-2.7,0.9-5.6,1.4-8.6,1.4c-3.9,0-8-0.8-12.3-2.4
								l-6.2,10.9L526.3,287.8z"/>
						</g>
						<g>
							<path class="st21" d="M587.9,182.3l8.8,5l-6.8,11.9c5.9,4.3,9.6,9.5,11,15.5c1.5,6,0.4,12-3,18.1c-4.9,8.6-12.7,13-23.2,13
								c-0.4,0-0.7,0-1.1,0c-3.3-0.1-7.8-0.6-13.3-1.6c-2.9-0.5-5.5-0.8-7.8-0.8c-2,0-3.7,0.2-5.2,0.6c-3.1,0.9-5.6,2.9-7.3,6
								c-1.9,3.3-2.3,6.6-1.3,9.8c1,3.2,3.6,6.1,7.8,8.4c2.8,1.6,5.6,2.4,8.2,2.4c1.3,0,2.6-0.2,3.8-0.6c3.8-1.2,6.9-4.1,9.6-8.7
								l13.3,7.6c-4.1,7.2-9.4,11.9-15.8,14.1c-2.5,0.8-5.1,1.3-7.8,1.3c-4.2,0-8.6-1-13.3-3l-6.1,10.6l-8.7-5l6.1-10.7
								c-6.4-4.6-10.3-9.8-11.9-15.8c-1.6-6-0.6-12.1,2.9-18.2c1.9-3.3,4-5.9,6.4-7.7c2.4-1.9,5-3.2,7.9-4.1
								c2.7-0.8,5.7-1.2,8.9-1.2c0.2,0,0.5,0,0.7,0c3.5,0.1,8.1,0.6,13.7,1.5c3.1,0.5,5.8,0.8,8.1,0.8c1.9,0,3.6-0.2,5-0.5
								c3-0.8,5.5-2.8,7.3-6c2-3.5,2.6-6.8,1.7-9.8c-0.9-3-3.1-5.5-6.6-7.5c-2-1.2-4.1-1.8-6.2-1.8c-1.5,0-3,0.3-4.5,0.9
								c-3.6,1.5-6.7,4.5-9.3,9.1l-13.2-7.6c4.1-7.1,9.1-12,15.2-14.5c2.9-1.2,5.8-1.8,8.9-1.8c3.4,0,6.8,0.7,10.4,2.1L587.9,182.3
								 M586.1,175.9l-2.3,4l-5,8.7c-2.8-0.8-5.6-1.2-8.3-1.2c-3.7,0-7.3,0.7-10.7,2.1c-7,2.9-12.8,8.4-17.4,16.4l-2.3,4l4,2.3
								l13.2,7.6l4,2.3l2.3-4c2.1-3.6,4.4-6,7-7.1c0.9-0.4,1.8-0.6,2.7-0.6c1.2,0,2.5,0.4,3.9,1.1c2.4,1.4,3.9,3,4.4,4.8
								c0.5,1.8,0.1,3.8-1.3,6.2c-1.6,2.7-3.3,3.5-4.4,3.8c-1,0.3-2.3,0.4-3.8,0.4c-2,0-4.5-0.2-7.3-0.7c-5.9-1-10.6-1.5-14.4-1.6
								c-0.3,0-0.5,0-0.8,0c-3.6,0-7.1,0.5-10.2,1.3c-3.5,1-6.7,2.6-9.5,4.9c-2.8,2.2-5.4,5.3-7.5,9.1c-4.1,7.2-5.3,14.6-3.4,21.7
								c1.6,5.9,5,11.2,10.4,15.8l-4.1,7.2l-2.3,4l4,2.3l8.7,5l4,2.3l2.3-4l4.1-7.2c3.9,1.3,7.6,1.9,11.2,1.9c3.2,0,6.3-0.5,9.3-1.5
								c7.5-2.5,13.6-8,18.3-16.2l2.3-4l-4-2.3l-13.3-7.6l-4-2.3l-2.3,4c-2,3.5-4.4,5.7-6.9,6.6c-0.8,0.3-1.6,0.4-2.4,0.4
								c-1.8,0-3.8-0.6-5.9-1.8c-3.1-1.8-5-3.7-5.6-5.8c-0.6-2-0.3-3.9,0.9-6.1c1.2-2.1,2.6-3.3,4.6-3.8c1-0.3,2.4-0.4,3.9-0.4
								c2,0,4.3,0.2,6.9,0.7c5.8,1.1,10.4,1.6,14,1.7c0.4,0,0.8,0,1.2,0c12.3,0,21.5-5.2,27.3-15.3c4.1-7.1,5.2-14.3,3.5-21.5
								c-1.4-5.9-4.6-11.1-9.5-15.5l4.9-8.5l2.3-4l-4-2.3l-8.8-5L586.1,175.9L586.1,175.9z"/>
						</g>
					</g>
				</g>
			</g>
		</g>
		<path id="XMLID_20303_" class="st28" d="M348.3,157.5c24.6,8.6,36.7,38.2,36.7,38.2s-27.9,15.5-52.5,6.9
			c-24.6-8.6-36.7-38.2-36.7-38.2S323.7,148.8,348.3,157.5z"/>
		<path id="XMLID_20315_" class="st28" d="M411.7,328.4c-16.9,19.8-48.8,20.4-48.8,20.4s-4.4-31.6,12.5-51.4
			c16.9-19.8,48.8-20.4,48.8-20.4S428.7,308.5,411.7,328.4z"/>
		<path id="XMLID_20307_" class="st28" d="M412.6,324.7c3.3,25.9,29.7,43.8,29.7,43.8s21-24,17.7-49.9s-29.7-43.8-29.7-43.8
			S409.3,298.8,412.6,324.7z"/>
	</g>
</g>
</svg>
