<?xml version="1.0" encoding="utf-8"?>
<!-- Generator: Adobe Illustrator 22.0.0, SVG Export Plug-In . SVG Version: 6.00 Build 0)  -->
<svg version="1.1" id="Layer_1" xmlns="http://www.w3.org/2000/svg" xmlns:xlink="http://www.w3.org/1999/xlink" x="0px" y="0px"
	 viewBox="0 0 450 450" style="enable-background:new 0 0 450 450;" xml:space="preserve">
<style type="text/css">
	.st0{clip-path:url(#SVGID_2_);}
	.st1{fill:#D2F9D2;}
	.st2{fill:#E17D33;}
	.st3{fill:#F4F419;}
	.st4{fill:#E4D816;}
	.st5{fill:#D7C81A;}
	.st6{fill:#F9F121;}
	.st7{fill:#EDE117;}
	.st8{fill:#7F626F;}
	.st9{fill:#41B08E;}
	.st10{fill:#389880;}
	.st11{fill:#389566;}
	.st12{opacity:0.37;fill:#808080;}
	.st13{opacity:0.37;}
	.st14{filter:url(#Adobe_OpacityMaskFilter);}
	.st15{filter:url(#Adobe_OpacityMaskFilter_1_);}
	.st16{mask:url(#SVGID_3_);fill:url(#SVGID_4_);}
	.st17{fill:url(#SVGID_5_);}
	.st18{fill:#42BC6B;}
	.st19{fill:#EEAF76;}
	.st20{fill:#FFFFFF;}
	.st21{fill:#808080;}
	.st22{fill:#964933;}
	.st23{fill:#64C5DC;}
</style>
<g>
	<defs>
		<circle id="SVGID_1_" cx="226.9" cy="215.9" r="210.2"/>
	</defs>
	<clipPath id="SVGID_2_">
		<use xlink:href="#SVGID_1_"  style="overflow:visible;"/>
	</clipPath>
	<g class="st0">
		<rect class="st1" width="450" height="340"/>
		<g>
			<path class="st2" d="M310.8,258.3v11.5c0,5.9-4.8,10.8-10.8,10.8h-1.7l-11.9,85.4h-69.9l-11.9-85.4h-1.7
				c-5.9,0-10.7-4.8-10.7-10.8v-11.5c0-5.9,4.8-10.8,10.7-10.8H300C306,247.5,310.8,252.4,310.8,258.3z"/>
			<g>
				<path class="st3" d="M225.5,161.1h-5.6c-1.1,0-2.1-0.2-3.1-0.6c-1.1-0.4-2.2-1-3.2-1.9c-5.2-4.5-6.5-13.4-3-20
					c2.1-4,5.5-6.2,9-6.3h5.6c-0.8,0-1.7,0.2-2.5,0.4c-2.6,0.9-4.9,2.9-6.5,5.9c-3.5,6.6-2.1,15.6,3,20c1,0.9,2.1,1.5,3.2,1.9
					c0.1,0,0.2,0.1,0.3,0.1C223.7,161,224.6,161.1,225.5,161.1z"/>
				<g>
					<path class="st4" d="M222.4,161.1c-0.9,0-1.9-0.2-2.8-0.5c-0.1,0-0.2-0.1-0.3-0.1c-1.1-0.4-2.2-1-3.2-1.9
						c-5.2-4.5-6.5-13.4-3-20c1.6-3,3.9-5,6.5-5.9c0.8-0.3,1.6-0.4,2.5-0.4h0.6c2.1,0,4.2,0.9,6,2.5c5.1,4.5,6.5,13.5,3,20
						c-2.1,4-5.5,6.2-8.9,6.3C222.7,161.1,222.6,161.1,222.4,161.1z"/>
				</g>
				<g>
					<path class="st5" d="M230.1,153.4c-2.9,5.4-8.7,6.9-12.9,3.2c-4.2-3.7-5.3-11.1-2.5-16.5c2.9-5.4,8.7-6.8,12.9-3.2
						C231.9,140.5,233,147.9,230.1,153.4z"/>
				</g>
				<g>
					<path class="st6" d="M225.7,150.2c-0.1,0.9-0.4,1.6-1,2.2c-0.4,0.4-0.9,0.6-1.5,0.7c-0.2,0-0.3,0-0.5,0l-0.1,1.3l-1.5-0.2
						l0.1-1.4c-0.4-0.2-0.8-0.4-1.1-0.7c-0.4-0.4-0.7-0.9-0.9-1.4c-0.2-0.6-0.3-1.2-0.3-1.9l2,0.2c0,0.8,0.2,1.4,0.5,1.8
						c0.2,0.3,0.5,0.5,0.8,0.5c0.5,0.1,0.8-0.1,1.2-0.5c0.2-0.2,0.3-0.5,0.3-0.8c0.1-0.5-0.2-1.1-0.6-1.7c-0.4-0.4-0.9-1.1-1.7-2
						c-0.6-0.7-1-1.4-1.3-1.9c-0.3-0.6-0.3-1.3-0.3-1.9c0.1-1.2,0.6-2,1.5-2.5c0.4-0.2,0.8-0.3,1.2-0.3l0.1-1.3l1.5,0.2l-0.1,1.3
						c0.4,0.1,0.8,0.3,1.1,0.6c0.4,0.3,0.7,0.7,0.9,1.2c0.2,0.5,0.3,1,0.3,1.6l-2,0c0-0.5-0.1-1-0.4-1.3c-0.2-0.2-0.4-0.4-0.8-0.5
						c-0.4-0.1-0.7,0-0.9,0.3c-0.2,0.2-0.3,0.5-0.3,0.9c-0.1,0.6,0.2,1.2,0.6,2c0.2,0.3,0.5,0.6,0.8,1c0.4,0.5,0.7,0.8,0.9,1
						c0.5,0.6,0.8,1.1,1,1.6c0.1,0.2,0.2,0.5,0.3,0.7C225.6,149.4,225.7,149.9,225.7,150.2z"/>
				</g>
			</g>
			<g>
				<path class="st5" d="M321.3,108.4c-2.6,2.7-6.3,3.9-9.8,3.6c2.8-0.2,5.5-1.5,7.6-3.6c4.7-4.8,4.5-12.5-0.3-17.1
					c-2.1-2-4.7-3.1-7.3-3.4c-0.4,0-0.7,0-1.1,0h2.2c3,0,6.1,1.1,8.4,3.4C325.8,95.9,326,103.6,321.3,108.4z"/>
				<path class="st6" d="M319.1,108.4c-2.1,2.2-4.8,3.4-7.6,3.6c-0.9,0.1-1.8,0.1-2.8-0.1c-1.3-0.2-2.5-0.5-3.6-1.1
					c-1.1-0.6-2.2-1.3-3.1-2.2c-4.8-4.7-4.9-12.3-0.3-17.1c2.4-2.4,5.5-3.7,8.7-3.7c0.4,0,0.7,0,1.1,0c2.7,0.2,5.3,1.4,7.3,3.4
					C323.7,95.9,323.8,103.6,319.1,108.4z"/>
				<g>
					<path class="st5" d="M317.6,106.9c-3.8,4-10.2,4-14.1,0.2c-4-3.8-4-10.2-0.2-14.1c3.8-4,10.2-4,14.1-0.2
						C321.4,96.6,321.5,102.9,317.6,106.9z"/>
				</g>
				<g>
					<path class="st6" d="M314.7,102c0.1,0.8-0.1,1.5-0.5,2.1c-0.3,0.4-0.8,0.7-1.4,1c-0.2,0.1-0.4,0.1-0.6,0.2l0.2,1.1l-1.6,0.2
						l-0.2-1.1c-0.5,0-0.9-0.1-1.3-0.2c-0.5-0.2-0.9-0.5-1.3-0.9c-0.3-0.4-0.6-0.9-0.7-1.5l2.1-0.4c0.2,0.6,0.5,1.1,0.9,1.3
						c0.3,0.2,0.6,0.2,1,0.2c0.5-0.1,0.9-0.3,1.1-0.7c0.1-0.2,0.2-0.4,0.1-0.8c-0.1-0.5-0.4-0.9-1-1.2c-0.5-0.2-1.2-0.6-2.2-1.1
						c-0.8-0.4-1.4-0.8-1.8-1.2c-0.4-0.4-0.6-0.9-0.7-1.5c-0.1-1,0.2-1.8,1-2.4c0.3-0.3,0.7-0.4,1.2-0.6l-0.2-1.1l1.6-0.2l0.1,1.1
						c0.5,0,0.9,0.1,1.3,0.2c0.5,0.1,0.9,0.4,1.2,0.7c0.3,0.3,0.5,0.7,0.7,1.2l-2.1,0.6c-0.1-0.4-0.3-0.8-0.7-1
						c-0.2-0.2-0.5-0.2-0.9-0.1c-0.4,0.1-0.7,0.2-0.9,0.5c-0.1,0.2-0.2,0.5-0.2,0.8c0.1,0.5,0.4,1,1.1,1.4c0.2,0.2,0.6,0.4,1.1,0.6
						c0.6,0.2,0.9,0.4,1.1,0.5c0.6,0.3,1.1,0.7,1.4,1c0.2,0.2,0.3,0.3,0.4,0.5C314.5,101.3,314.6,101.7,314.7,102z"/>
				</g>
			</g>
			<g>
				<g>
					<path class="st6" d="M224.2,113.6c-2.9,3-6.9,4.2-10.7,3.7c-1.3-0.2-2.6-0.6-3.8-1.2c-1.2-0.6-2.2-1.3-3.2-2.3
						c-5-4.8-5.1-12.7-0.3-17.7c4.8-5,12.7-5.1,17.7-0.3C228.9,100.8,229,108.7,224.2,113.6z"/>
				</g>
				<g>
					<path class="st5" d="M222.6,112.1c-4,4.1-10.5,4.2-14.6,0.2c-4.1-4-4.2-10.5-0.2-14.6c4-4.1,10.5-4.2,14.6-0.2
						C226.5,101.5,226.6,108,222.6,112.1z"/>
				</g>
				<g>
					<path class="st6" d="M218.2,108.6c-0.2,0.8-0.7,1.3-1.4,1.7c-0.5,0.3-1.1,0.4-1.8,0.3c-0.2,0-0.4,0-0.6-0.1l-0.3,1.1l-1.6-0.5
						l0.4-1.1c-0.4-0.2-0.8-0.5-1.1-0.8c-0.4-0.4-0.7-0.9-0.8-1.4c-0.1-0.5-0.1-1.1,0-1.7l2.1,0.5c-0.1,0.7,0,1.2,0.3,1.6
						c0.2,0.3,0.5,0.5,0.8,0.6c0.5,0.1,0.9,0.1,1.3-0.2c0.2-0.1,0.3-0.3,0.4-0.7c0.1-0.5,0-1-0.4-1.6c-0.3-0.4-0.9-1.1-1.5-2
						c-0.6-0.8-0.9-1.4-1.1-1.9c-0.2-0.6-0.2-1.1,0-1.7c0.3-1,1-1.6,2-1.8c0.4-0.1,0.9-0.1,1.4,0l0.3-1.1l1.6,0.5l-0.3,1.1
						c0.4,0.2,0.8,0.4,1.1,0.7c0.4,0.3,0.6,0.7,0.8,1.2c0.2,0.4,0.2,0.9,0.1,1.4l-2.2-0.4c0.1-0.5,0-0.9-0.2-1.2
						c-0.2-0.2-0.4-0.4-0.8-0.5c-0.4-0.1-0.8-0.1-1,0.1c-0.2,0.2-0.4,0.4-0.5,0.7c-0.2,0.5,0,1.1,0.4,1.8c0.2,0.3,0.4,0.6,0.8,1
						c0.4,0.5,0.7,0.8,0.8,1c0.4,0.6,0.7,1.1,0.9,1.6c0.1,0.2,0.1,0.4,0.2,0.6C218.3,107.9,218.3,108.3,218.2,108.6z"/>
				</g>
			</g>
			<g>
				<g>
					<path class="st7" d="M347.7,176.6c-0.7,0-1.4-0.1-2.1-0.4c-0.1,0-0.2-0.1-0.3-0.1c-0.8-0.4-1.7-0.9-2.4-1.7
						c-3.9-3.9-4.9-11.8-2.3-17.6c1.2-2.6,3-4.4,4.9-5.2c0.6-0.2,1.2-0.4,1.9-0.4h0.5c1.6,0,3.2,0.8,4.6,2.2
						c3.9,3.9,4.9,11.8,2.3,17.6c-1.6,3.5-4.1,5.4-6.8,5.6C347.9,176.6,347.8,176.6,347.7,176.6z"/>
				</g>
				<path class="st3" d="M347.7,176.6h-4.2c-0.8,0-1.6-0.2-2.4-0.5c-0.8-0.4-1.7-0.9-2.4-1.7c-3.9-3.9-4.9-11.8-2.3-17.6
					c1.6-3.5,4.2-5.4,6.8-5.5h4.2c-0.6,0-1.3,0.2-1.9,0.4c-1.9,0.8-3.7,2.5-4.9,5.2c-2.6,5.8-1.6,13.7,2.3,17.6
					c0.8,0.8,1.6,1.3,2.4,1.7c0.1,0,0.2,0.1,0.3,0.1C346.3,176.4,347,176.6,347.7,176.6z"/>
				<g>
					<path class="st5" d="M353.5,169.8c-2.2,4.8-6.6,6-9.8,2.8c-3.2-3.2-4.1-9.8-1.9-14.5c2.2-4.8,6.6-6,9.8-2.8
						C354.9,158.5,355.7,165,353.5,169.8z"/>
				</g>
				<g>
					<path class="st6" d="M350.2,167c-0.1,0.8-0.3,1.5-0.7,1.9c-0.3,0.3-0.7,0.5-1.1,0.6c-0.1,0-0.3,0-0.4,0l-0.1,1.2l-1.1-0.2
						l0.1-1.2c-0.3-0.1-0.6-0.3-0.8-0.6c-0.3-0.3-0.5-0.8-0.7-1.3c-0.2-0.5-0.2-1.1-0.2-1.7l1.5,0.2c0,0.7,0.1,1.2,0.4,1.5
						c0.2,0.3,0.4,0.4,0.6,0.4c0.3,0.1,0.6-0.1,0.9-0.4c0.1-0.2,0.2-0.4,0.2-0.7c0-0.5-0.1-1-0.5-1.5c-0.3-0.4-0.7-1-1.3-1.7
						c-0.5-0.7-0.8-1.2-1-1.7c-0.2-0.5-0.3-1.1-0.2-1.7c0.1-1,0.5-1.8,1.2-2.2c0.3-0.2,0.6-0.2,0.9-0.3l0.1-1.2l1.1,0.2l-0.1,1.2
						c0.3,0.1,0.6,0.3,0.8,0.5c0.3,0.3,0.5,0.6,0.7,1c0.2,0.4,0.2,0.9,0.2,1.4l-1.5,0c0-0.5-0.1-0.9-0.3-1.2
						c-0.1-0.2-0.3-0.4-0.6-0.4c-0.3,0-0.5,0-0.7,0.3c-0.1,0.2-0.2,0.5-0.3,0.8c0,0.5,0.1,1.1,0.5,1.7c0.1,0.2,0.3,0.5,0.6,0.9
						c0.3,0.4,0.6,0.7,0.7,0.8c0.4,0.5,0.6,1,0.8,1.4c0.1,0.2,0.1,0.4,0.2,0.6C350.1,166.3,350.2,166.7,350.2,167z"/>
				</g>
			</g>
			<g>
				<path class="st8" d="M355.3,148c-3.8,4.4-3.1,5.7-11.8,6.3c-6.1,0.8-13.6-2.3-19.7-0.8c-9.1,3-8.3,10.6-17.4,13.6
					c-13.6,3.8-28-8.3-40.2-6.8c-15.2,1.5-3.7,10.9-7.5,20.8c-4.5,11.4-12.2,6.5-4.7,20.9c5.3,9.9,12.1,12.9,12.1,25.8
					c0,6.2-1.4,14.1-5.1,19.7h-21.9c11.2-8,14.8-19.1,8.1-35.6c-3.8-9.1-8.3-12.2-7.2-20.8c0.6-4.8,6.4-8.1,7.9-11.9
					c3-6.1,0-9.8,1.5-15.9c2.3-11.4,12.1-10.6,16.7-20.5c3.9-9.7-1.6-16.6-4.7-24.5c-4.7-2.2-9.7-3.6-13.5-2.8
					c-12.1,2.3-8.3,13.6-15.2,18.2c-5.9,3.8-15.2-1.2-22.3-6.3c9.7,4.6,18.1,7.5,23.8-6.2c1-2.4,2.3-4.4,3.9-5.9
					c-2.5-7.8-8.4-13.9-15.6-16.4c-4.8-2-9.8-3.9-13.4-7.3c5,1.3,9.1,0.3,14.9,3.1c10.2,5,13.4,11.2,18,17.7
					c4.8-2.5,11-2.7,17.5-1.9c-1.5-12.1,1.4-26.1,6.9-36.9c-0.7,4.5-1.4,9.7-1.8,14.8c5.5-2.2,10.2-6.5,15.9-7.8
					c5.7-1.1,12.5,0.4,17.8,2.3c6.4,2.3,9.9,3.8,16.3,1.9c2.5-0.7,4.5-1.3,6.4-1.8c-1.5,1.9-3.1,4-5.7,6c-7.6,5.3-9.5,1.9-16.7-0.8
					c-13.8-5.2-25.8-4.1-34.6,6.5c-0.2,2.5-0.2,5-0.2,7.2c0.8,14.4,9.6,16.2,11.7,27.9c1.3,7.5,0,16.3-5.3,22.8
					c7.4,1.3,14.5,2.1,21.5,5.3c3.7,1.7,6.5,3.1,11.1,3.1c5.1,0,6-2.3,8.5-6.3c9.1-15.4,26.4-4.8,40.9-6.3
					C353.4,148.4,354.4,148.2,355.3,148z"/>
				<path class="st9" d="M308.1,69.8c2.7-8.2,14.7-12.5,24.4-14.1c0.2,8.9,0.4,18.4-5.7,25.2c-3.3,3.7-9.8,5.9-15.3,6.3
					C308.6,81.8,305.9,76,308.1,69.8z"/>
				<path class="st9" d="M206.1,86.3c-2.5-5.8,2.1-13.8,6.6-19.3c4.3,4.8,9,9.9,8.9,16.5c-0.1,3.6-2.5,7.9-5.4,10.7
					C212.1,92.6,207.9,90.7,206.1,86.3z"/>
				<path class="st9" d="M255.3,65.5c-1.3-8.1,7.1-16.8,14.6-22.4c4,7.4,8.3,15.4,5.9,23.8c-1.3,4.5-5.7,9.2-10.3,11.9
					C260.9,75.4,256.1,71.7,255.3,65.5z"/>
				<path class="st9" d="M351.2,136.6c4.4-5,14.2-4.4,21.6-2.6c-2.6,6.4-5.3,13.3-11.8,16.2c-3.5,1.6-8.7,1.2-12.8-0.2
					C347.9,145.2,347.7,140.3,351.2,136.6z"/>
				<path class="st10" d="M347.9,105.1c-8.4,4.1-17.9,7.6-25.7,0.5c-5.5-5.1-8.1-12.4-11.3-19C323.8,78.3,341.8,92.2,347.9,105.1z"
					/>
				<path class="st11" d="M196.9,120.1c3.6-2,7.6-3.5,11.2-1.7c5.1,2.6,7.6,7.5,9.8,12.5C209.9,135,201.1,128.1,196.9,120.1z"/>
				<path class="st9" d="M264.7,113.5c0.9-4,2.3-8,6-9.6c5.3-2.2,10.7-0.9,15.9,0.8C284.4,113.4,273.5,115.5,264.7,113.5z"/>
				<path class="st11" d="M264.4,79.4c1.2-4,2.9-7.8,6.7-9.1c5.5-1.8,10.7-0.1,15.8,1.9C284,80.7,273,82.1,264.4,79.4z"/>
				<path class="st9" d="M219.6,131.3c-2.6,17.2-21.3,25.1-39.2,23.4c0.5-1.7,1.1-3.4,1.6-4.6c3.3-7.5,9.8-13.9,17.1-17.4
					C206.3,129,213,129.2,219.6,131.3z"/>
				<path class="st10" d="M217.3,93.3c-11.7,16.4-31.9,16.5-48.6,8.3c5.9-11.6,28-16.8,38.2-14.2C210.8,88.3,214.3,90.5,217.3,93.3z
					"/>
				<path class="st11" d="M335.4,170.3c-0.7,0.4-1.4,0.9-2.2,1.3c-6.1,3-14.6,4.9-21,1.5c-2.8-1.5-6.8-5-9.3-8.6
					c5.7-3.6,14.6-4.3,19.9-3.5C328.5,161.9,332.6,165.6,335.4,170.3z"/>
				<path class="st11" d="M266.2,79.4c-0.8,0.2-1.6,0.4-2.5,0.6c-6.7,1.2-15.4,0.8-20.6-4.2c-2.3-2.1-5.2-6.7-6.7-10.8
					c6.5-1.9,15.2-0.2,20.1,2C261.8,69.5,264.7,74.2,266.2,79.4z"/>
				<path class="st10" d="M373,186.9c-4.4-2.1-8.6-5.2-12.6-8.9c-9.4-8.7-12.4-18.3-14.8-29.3c9.7-1.2,18.2,3.9,24.1,12.6
					C375.4,169.7,375.8,178.4,373,186.9z"/>
			</g>
			<g>
				<g>
					<path class="st6" d="M276.8,92.8c-2.4,2.5-5.7,3.5-8.9,3.1c-1.1-0.1-2.1-0.5-3.1-1c-1-0.5-1.9-1.1-2.7-1.9
						c-4.1-4-4.2-10.6-0.2-14.7c4-4.1,10.6-4.2,14.7-0.2C280.7,82.1,280.8,88.7,276.8,92.8z"/>
				</g>
				<g>
					<path class="st5" d="M275.5,91.6c-3.3,3.4-8.7,3.5-12.1,0.2c-3.4-3.3-3.5-8.7-0.2-12.1c3.3-3.4,8.7-3.5,12.1-0.2
						C278.7,82.7,278.8,88.2,275.5,91.6z"/>
				</g>
				<g>
					<path class="st6" d="M271.8,88.6c-0.2,0.6-0.6,1.1-1.2,1.4c-0.4,0.2-0.9,0.3-1.5,0.3c-0.2,0-0.3,0-0.5-0.1l-0.3,0.9l-1.3-0.4
						l0.3-1c-0.4-0.2-0.7-0.4-0.9-0.7c-0.3-0.3-0.6-0.7-0.7-1.2c-0.1-0.4-0.1-0.9,0-1.4l1.8,0.4c-0.1,0.6,0,1,0.2,1.3
						c0.2,0.2,0.4,0.4,0.7,0.5c0.4,0.1,0.8,0.1,1.1-0.1c0.2-0.1,0.3-0.3,0.4-0.5c0.1-0.4,0-0.8-0.3-1.3c-0.3-0.4-0.7-0.9-1.3-1.7
						c-0.5-0.6-0.8-1.2-0.9-1.6c-0.2-0.5-0.2-0.9,0-1.4c0.3-0.8,0.8-1.3,1.7-1.5c0.4-0.1,0.7-0.1,1.1,0l0.3-0.9l1.3,0.4l-0.3,0.9
						c0.4,0.2,0.7,0.4,0.9,0.6c0.3,0.3,0.5,0.6,0.7,1c0.1,0.4,0.2,0.8,0.1,1.2l-1.8-0.3c0.1-0.4,0-0.7-0.2-1
						c-0.1-0.2-0.3-0.4-0.7-0.4c-0.3-0.1-0.6-0.1-0.9,0.1c-0.2,0.1-0.3,0.3-0.4,0.6c-0.1,0.4,0,0.9,0.3,1.5c0.1,0.2,0.3,0.5,0.6,0.8
						c0.3,0.4,0.6,0.7,0.7,0.8c0.4,0.5,0.6,0.9,0.7,1.3c0.1,0.2,0.1,0.4,0.1,0.5C271.9,88.1,271.9,88.4,271.8,88.6z"/>
				</g>
			</g>
			<g>
				<path class="st5" d="M310,185.8c-3,3.1-7.2,4.5-11.2,4.1c3.2-0.3,6.3-1.7,8.7-4.1c5.3-5.5,5.2-14.2-0.3-19.6
					c-2.4-2.3-5.3-3.6-8.4-3.8c-0.4,0-0.8-0.1-1.2-0.1h2.5c3.5,0,6.9,1.3,9.6,3.9C315.2,171.5,315.4,180.3,310,185.8z"/>
				<path class="st6" d="M307.6,185.8c-2.4,2.5-5.5,3.9-8.7,4.1c-1,0.1-2.1,0.1-3.2-0.1c-1.4-0.2-2.8-0.6-4.2-1.3
					c-1.3-0.6-2.5-1.4-3.6-2.5c-5.5-5.3-5.6-14.1-0.3-19.5c2.7-2.8,6.3-4.2,9.9-4.2c0.4,0,0.8,0,1.2,0.1c3,0.3,6,1.6,8.4,3.8
					C312.7,171.5,312.9,180.3,307.6,185.8z"/>
				<g>
					<path class="st5" d="M305.8,184.1c-4.4,4.5-11.6,4.6-16.1,0.2c-4.5-4.4-4.6-11.6-0.2-16.1c4.4-4.5,11.6-4.6,16.1-0.2
						C310.1,172.3,310.2,179.6,305.8,184.1z"/>
				</g>
				<g>
					<g>
						<path class="st6" d="M304,180.4c-0.8,1.4-1.9,2.3-3.3,2.8c-1.3,0.5-2.8,0.5-4.4,0.1c-1.7-0.5-2.9-1.1-3.8-2
							c-0.9-0.9-1.4-2-1.7-3.3c-0.1-0.6-0.2-1.3-0.1-2l-1.2-0.3l0.4-1.3l1,0.3c0-0.2,0.1-0.4,0.1-0.6c0-0.2,0.1-0.3,0.2-0.5
							l-0.6-0.2l0.4-1.3l0.8,0.2c0.3-0.7,0.8-1.2,1.3-1.7c0.9-0.9,2-1.5,3.3-1.7c1.3-0.2,2.6-0.2,4,0.2c1.5,0.4,2.7,1.1,3.6,2.1
							c0.9,1,1.3,2.2,1.4,3.6l-2.1-0.1c-0.1-1.1-0.4-2-1-2.6c-0.6-0.6-1.3-1.1-2.4-1.4c-1.2-0.3-2.3-0.3-3.2-0.1
							c-0.9,0.3-1.7,0.8-2.2,1.6c-0.2,0.2-0.3,0.5-0.5,0.8l4,1.1l-0.4,1.3l-4.2-1.2c-0.1,0.2-0.1,0.3-0.2,0.5
							c-0.1,0.2-0.1,0.4-0.1,0.6l3.9,1.1l-0.4,1.3l-3.7-1c0,0.4,0,0.9,0.1,1.3c0.1,1,0.6,1.8,1.3,2.4c0.7,0.7,1.5,1.1,2.4,1.4
							c1.1,0.3,2.2,0.3,3.2-0.1c1-0.4,1.7-1.1,2.3-2.2L304,180.4z"/>
					</g>
				</g>
			</g>
			<g>
				<path class="st6" d="M258.1,133.7c-2.2,2.3-5,3.5-7.9,3.8c-1,0.1-1.9,0.1-2.9-0.1c-1.3-0.2-2.6-0.6-3.8-1.2
					c-1.2-0.6-2.3-1.3-3.2-2.3c-5-4.9-5.1-12.8-0.3-17.8c2.5-2.6,5.8-3.8,9.1-3.8c0.4,0,0.8,0,1.1,0.1c2.8,0.2,5.5,1.4,7.6,3.5
					C262.8,120.7,262.9,128.7,258.1,133.7z"/>
				<g>
					<path class="st5" d="M256.5,132.1c-4,4.1-10.6,4.2-14.7,0.2c-4.1-4-4.2-10.6-0.2-14.7c4-4.1,10.6-4.2,14.7-0.2
						C260.4,121.4,260.5,128,256.5,132.1z"/>
				</g>
				<g>
					<g>
						<path class="st6" d="M254.8,128.8c-0.8,1.3-1.8,2.1-3,2.5c-1.2,0.4-2.6,0.5-4,0c-1.5-0.4-2.7-1-3.5-1.8
							c-0.8-0.8-1.3-1.8-1.5-3c-0.1-0.6-0.1-1.2-0.1-1.8l-1.1-0.3l0.3-1.2l0.9,0.2c0-0.2,0.1-0.4,0.1-0.5c0-0.2,0.1-0.3,0.1-0.5
							l-0.5-0.1l0.3-1.2l0.7,0.2c0.3-0.6,0.7-1.1,1.1-1.6c0.8-0.8,1.8-1.3,3-1.6c1.2-0.2,2.4-0.2,3.6,0.2c1.4,0.4,2.5,1,3.3,1.9
							c0.8,0.9,1.2,2,1.3,3.2l-1.9-0.1c-0.1-1-0.4-1.8-0.9-2.4c-0.5-0.6-1.2-1-2.2-1.3c-1.1-0.3-2.1-0.3-2.9-0.1
							c-0.9,0.3-1.5,0.7-2.1,1.4c-0.2,0.2-0.3,0.5-0.4,0.7l3.7,1l-0.3,1.2l-3.9-1.1c-0.1,0.2-0.1,0.3-0.1,0.5c0,0.2-0.1,0.4-0.1,0.5
							l3.5,1l-0.3,1.2l-3.4-0.9c0,0.4,0,0.8,0,1.1c0.1,0.9,0.5,1.6,1.1,2.2c0.6,0.6,1.4,1,2.2,1.3c1,0.3,2,0.3,2.9-0.1
							c0.9-0.3,1.6-1,2.1-2L254.8,128.8z"/>
					</g>
				</g>
			</g>
			<g>
				<path class="st5" d="M232,101.4c-2.1,2.2-5.1,3.2-7.9,2.9c2.2-0.2,4.4-1.2,6.1-2.9c3.8-3.9,3.7-10.1-0.2-13.8
					c-1.7-1.6-3.8-2.5-5.9-2.7c-0.3,0-0.6,0-0.9,0h1.8c2.4,0,4.9,0.9,6.8,2.8C235.7,91.4,235.8,97.6,232,101.4z"/>
				<path class="st6" d="M230.3,101.4c-1.7,1.7-3.9,2.7-6.1,2.9c-0.7,0.1-1.5,0.1-2.2-0.1c-1-0.1-2-0.4-2.9-0.9
					c-0.9-0.4-1.8-1-2.5-1.8c-3.9-3.8-4-9.9-0.2-13.8c1.9-2,4.5-3,7-3c0.3,0,0.6,0,0.9,0c2.1,0.2,4.2,1.1,5.9,2.7
					C233.9,91.4,234,97.6,230.3,101.4z"/>
				<g>
					<path class="st5" d="M229,100.2c-3.1,3.2-8.2,3.3-11.4,0.2c-3.2-3.1-3.3-8.2-0.2-11.4c3.1-3.2,8.2-3.3,11.4-0.2
						C232.1,91.9,232.1,97,229,100.2z"/>
				</g>
				<g>
					<g>
						<path class="st6" d="M227.7,97.6c-0.6,1-1.4,1.6-2.3,2c-0.9,0.3-2,0.3-3.1,0c-1.2-0.3-2.1-0.8-2.7-1.4c-0.6-0.6-1-1.4-1.2-2.3
							c-0.1-0.5-0.1-0.9-0.1-1.4l-0.8-0.2l0.3-0.9l0.7,0.2c0-0.1,0.1-0.3,0.1-0.4c0-0.1,0.1-0.2,0.1-0.4l-0.4-0.1l0.3-0.9l0.5,0.1
							c0.2-0.5,0.5-0.9,0.9-1.2c0.6-0.6,1.4-1,2.3-1.2c0.9-0.2,1.8-0.1,2.8,0.1c1.1,0.3,1.9,0.8,2.5,1.5c0.6,0.7,0.9,1.5,1,2.5
							l-1.5-0.1c-0.1-0.8-0.3-1.4-0.7-1.8c-0.4-0.5-1-0.8-1.7-1c-0.8-0.2-1.6-0.2-2.3,0c-0.7,0.2-1.2,0.6-1.6,1.1
							c-0.1,0.2-0.2,0.4-0.3,0.5l2.9,0.8l-0.3,0.9l-3-0.8c0,0.1-0.1,0.2-0.1,0.3c0,0.1-0.1,0.3-0.1,0.4l2.7,0.7l-0.3,0.9l-2.6-0.7
							c0,0.3,0,0.6,0,0.9c0.1,0.7,0.4,1.3,0.9,1.7c0.5,0.5,1.1,0.8,1.7,1c0.8,0.2,1.6,0.2,2.2-0.1c0.7-0.3,1.2-0.8,1.6-1.5
							L227.7,97.6z"/>
					</g>
				</g>
			</g>
			<path class="st12" d="M204.6,280.6l5.5,39.7c9.4-33.1,43.4-38.9,59.6-39.7H204.6z"/>
			<g class="st13">
				<defs>
					<filter id="Adobe_OpacityMaskFilter" filterUnits="userSpaceOnUse" x="0" y="358.2" width="286.3" height="60.2">
						<feColorMatrix  type="matrix" values="1 0 0 0 0  0 1 0 0 0  0 0 1 0 0  0 0 0 1 0"/>
					</filter>
				</defs>
				<mask maskUnits="userSpaceOnUse" x="0" y="358.2" width="286.3" height="60.2" id="SVGID_3_">
					<g class="st14">
						<defs>
							<filter id="Adobe_OpacityMaskFilter_1_" filterUnits="userSpaceOnUse" x="0" y="358.2" width="286.3" height="60.2">
								<feFlood  style="flood-color:white;flood-opacity:1" result="back"/>
								<feBlend  in="SourceGraphic" in2="back" mode="normal"/>
							</filter>
						</defs>
						<mask maskUnits="userSpaceOnUse" x="0" y="358.2" width="286.3" height="60.2" id="SVGID_3_">
							<g class="st15">
							</g>
						</mask>
						<linearGradient id="SVGID_4_" gradientUnits="userSpaceOnUse" x1="0" y1="388.25" x2="286.2695" y2="388.25">
							<stop  offset="0" style="stop-color:#242424"/>
							<stop  offset="5.029052e-02" style="stop-color:#2E2E2E"/>
							<stop  offset="0.3752" style="stop-color:#676767"/>
							<stop  offset="0.6531" style="stop-color:#929292"/>
							<stop  offset="0.8703" style="stop-color:#ABABAB"/>
							<stop  offset="1" style="stop-color:#B5B5B5"/>
						</linearGradient>
						<path class="st16" d="M208,393.3c-5.9,7.2-13,8.1-23.2,4.2c-5.5-2.7-11-5.5-16.5-8.1c-8.5,21.6-30.1,16.6-49.8,14.1
							c-10.4-1.3-17.1,5.3-26.3,8.5c-5.6,2.5-8.9,0.9-11.4,6.2H68.6c-1.2-1.1-2.3-2.2-2.7-2.4c-12.5-6.6-30.5-24.5-45.4-19
							c-4,2-9.2,5.3-12.5,6.6c-2,0.7-4.9,1.6-8.1,2.4v-21.7c4.2,4.3,9.5,11.7,5.4,14.7c-0.6,0.3-1.3,0.6-2,0.9
							c0.8-0.2,1.5-0.5,2-0.9c7-3.4,13.3-8.3,20.4-9.2c5.4-0.7,10.5,0.8,15.4,3.2c-1-1.8-1.7-3.8-1.6-5.2
							c1.1-8.6,17.4-11.7,27.5-14.3c3.5,8.2,3.3,13.7-4.2,21.6c-3.5,3.9-6.8,5.1-10.5,5.1c8.6,6.1,17.2,12.6,26.6,12.4l0,0
							c13.6-5.8,27-16.6,41.4-17.5c17.6-0.6,30.3,13.1,35.5-11.3c-5.2-2.3-10.6-4.4-16-6.1c-5-1.9-6.5-4.4-5-6.3
							c6.3-6.3,14.2-4.3,21.4-1.8h0c19.4-2.6,41.2-6.9,59-11.3h0l1.1,7.9h69.8c-26.1,5.9-53.7,18.8-81.1,22.2
							C207.3,389.7,209.1,392,208,393.3z"/>
					</g>
				</mask>
				<linearGradient id="SVGID_5_" gradientUnits="userSpaceOnUse" x1="0" y1="388.25" x2="286.2695" y2="388.25">
					<stop  offset="0" style="stop-color:#A8B5B8"/>
					<stop  offset="0.1948" style="stop-color:#8F9B9E"/>
					<stop  offset="0.5517" style="stop-color:#677174"/>
					<stop  offset="0.8323" style="stop-color:#4E585B"/>
					<stop  offset="1" style="stop-color:#454E51"/>
				</linearGradient>
				<path class="st17" d="M208,393.3c-5.9,7.2-13,8.1-23.2,4.2c-5.5-2.7-11-5.5-16.5-8.1c-8.5,21.6-30.1,16.6-49.8,14.1
					c-10.4-1.3-17.1,5.3-26.3,8.5c-5.6,2.5-8.9,0.9-11.4,6.2H68.6c-1.2-1.1-2.3-2.2-2.7-2.4c-12.5-6.6-30.5-24.5-45.4-19
					c-4,2-9.2,5.3-12.5,6.6c-2,0.7-4.9,1.6-8.1,2.4v-21.7c4.2,4.3,9.5,11.7,5.4,14.7c-0.6,0.3-1.3,0.6-2,0.9c0.8-0.2,1.5-0.5,2-0.9
					c7-3.4,13.3-8.3,20.4-9.2c5.4-0.7,10.5,0.8,15.4,3.2c-1-1.8-1.7-3.8-1.6-5.2c1.1-8.6,17.4-11.7,27.5-14.3
					c3.5,8.2,3.3,13.7-4.2,21.6c-3.5,3.9-6.8,5.1-10.5,5.1c8.6,6.1,17.2,12.6,26.6,12.4l0,0c13.6-5.8,27-16.6,41.4-17.5
					c17.6-0.6,30.3,13.1,35.5-11.3c-5.2-2.3-10.6-4.4-16-6.1c-5-1.9-6.5-4.4-5-6.3c6.3-6.3,14.2-4.3,21.4-1.8h0
					c19.4-2.6,41.2-6.9,59-11.3h0l1.1,7.9h69.8c-26.1,5.9-53.7,18.8-81.1,22.2C207.3,389.7,209.1,392,208,393.3z"/>
			</g>
		</g>
		<g>
			<path class="st18" d="M86,122.7l-32.2,38.1c-3.3,3.9-3.7,9.2-0.9,11.8l78.6,66.8c2.9,2.4,8.9,4.1,13.2,3.7l113.8-9.8
				c4.4-0.4,5.5-2.8,2.6-5.2l-0.2-0.2c-2.9-2.4-8.6-4.8-12.8-5.1l-79.3-7.2c-4.1-0.4-4.7-4-1.3-7.9l25.9-30.6
				c3.3-3.9,3.8-9.2,0.9-11.7l-58.9-49.9c-1.6-1.4-4.7-2.3-6.8-1.9l-36.1,5.5C90.3,119.5,87.4,121.1,86,122.7z M91.8,133.1
				c1.4-1.6,4.3-3.2,6.4-3.6l27-4.1c2.1-0.4,5.2,0.5,6.8,1.9l18.8,15.9l-79.6,14.1L91.8,133.1z"/>
			<path class="st19" d="M160.2,107.6c0.9,8.3-10.4,7.5-13.5,6.7c-6.2-1.9-12.3-5.3-18.5-6.7c0.3,4.8,1.3,8.9,3.5,13.1
				c1.7,3.5,3.3,8.7,3.3,12.5c0,5.7-4.4,10.5-9.8,11.6c-5.7,1-9.1-2.2-13.2-5.1c-3.3,6.3-9.5,7.9-16.2,4.7c-1.4,2.3-3.1,4-5.9,5.2
				c-3.4,1.4-5.7,0.5-8.7-0.2c-0.5,2.1-1.6,3.8-3.6,5.1c-7.8,5.1-18-11.8-23.4-15.8c-9.2-7.5-12.7-18.3-16.2-29
				c-3.6-11.2-4.2-18.7-10.2-29.2C21.5,69.4,21.9,62,11.2,41l52.3-23.2c3.2,9.5,9.4,29.2,14.6,35.9c9.1,9.4,12.2,10.8,23,18.4
				c6.5,4.4,13.1,6.6,20.1,9.6c6,2.7,10.8,7.5,16.6,10.8c4.1,2.5,8,4.7,11.7,7.9C152.6,102.9,156.2,106.4,160.2,107.6z"/>
			<path class="st12" d="M258.4,233.4l-113.8,9.8c-4.3,0.4-10.3-1.3-13.2-3.7l-78.6-66.8c-2.9-2.6-2.5-7.8,0.9-11.8l1.5-1.7
				l8.7-10.3c3,3.1,6.2,5.7,9.2,6.3l-1.9,2.3l14.5-2.6c-2,2.6-3.7,4.4-7.1,6c-2.5,1.2-6.7,1.9-7.8,3.8c-0.6,1-0.6,2.7-1.5,3.8
				c-1,1.5-2.4,2.2-4,3.1c-0.9,0.4-2,0.8-3.1,0.9l72.8,61.9c2.9,2.4,8.9,4.1,13.2,3.7l113.2-9.8C263.9,230.7,262.7,233,258.4,233.4z
				"/>
			
				<rect x="3.2" y="20.1" transform="matrix(0.9598 -0.2805 0.2805 0.9598 -7.8244 12.72)" class="st20" width="74.6" height="27.2"/>
			<g class="st13">
				<path class="st21" d="M78.7,153.3c-0.4,0.3-0.8,0.7-1.3,1c-7.8,5.1-18-11.8-23.4-15.8c-9.2-7.5-12.7-18.3-16.2-29
					c-3.6-11.2-4.2-18.7-10.2-29.2C23,72.2,22,66,17.4,54.6L70.8,39c0.5,1.1,0.9,2.3,1.4,3.4c-9.1,6.1-22.8,9-29.5,17.9
					c-5.3,6.8-6.4,13.2-4.7,21.5c1.5,6.8,7.3,14.2,8.1,21.3c0.6,7.4,0,13.6,3,20.7c3.3,8,11.2,12.4,16.9,19.2
					C70.2,148.4,73.7,153.3,78.7,153.3z"/>
			</g>
			<polygon class="st22" points="83.8,18.4 75.6,20.8 65.4,23.8 20,37 4,41.7 0,42.9 0,0 78.4,0 			"/>
			<path class="st23" d="M277.3,239.5c-2.1-0.1-2.8-1.2-4-2.8c-2.5-3-3.9-6.8-8-7.9c5.3-0.6,13.6,1.6,14.8,7.5
				C280.6,238.3,279.5,239.6,277.3,239.5z"/>
		</g>
	</g>
</g>
</svg>
